<svg xmlns="http://www.w3.org/2000/svg" width="15.091" height="14" viewBox="0 0 15.091 14"><defs><style>.a{fill:#cecece;stroke-linecap:round;stroke-linejoin:round;}.b,.c{stroke:none;}.c{fill:#b7b7b7;}</style></defs><g class="a" transform="translate(1 0)"><path class="b" d="M 6.545422077178955 13.58740234375 L 6.282872200012207 13.42541217803955 C 3.956622123718262 11.9901123046875 2.193262100219727 10.47108173370361 1.041752099990845 8.91051197052002 C 0.03313207626342773 7.543581962585449 -0.4999979138374329 6.129012107849121 -0.4999979138374329 4.819752216339111 C -0.4999979138374329 3.134052038192749 0.207832083106041 2.123582124710083 0.8016321063041687 1.572742104530334 C 1.547412037849426 0.880902111530304 2.541822195053101 0.4998921155929565 3.601662158966064 0.4998921155929565 C 4.817222595214844 0.4998921155929565 5.890234470367432 1.010753154754639 6.545092105865479 1.854731440544128 C 7.198456764221191 1.011009454727173 8.267848968505859 0.5003120899200439 9.478591918945313 0.5003120899200439 C 11.52212238311768 0.5003120899200439 13.59084224700928 1.984002113342285 13.59084224700928 4.819752216339111 C 13.59084224700928 6.129012107849121 13.05771160125732 7.543581962585449 12.04909229278564 8.91051197052002 C 10.89758205413818 10.47108173370361 9.134222030639648 11.9901123046875 6.807971954345703 13.42541217803955 L 6.545422077178955 13.58740234375 Z"/><path class="c" d="M 3.601659774780273 0.9998931884765625 C 1.843918800354004 0.9998931884765625 1.9073486328125e-06 2.231683731079102 1.9073486328125e-06 4.819751739501953 C 1.9073486328125e-06 7.038651943206787 1.669081687927246 9.991182327270508 6.545422077178955 12.99989223480225 C 11.42176246643066 9.991182327270508 13.09084224700928 7.038651943206787 13.09084224700928 4.819751739501953 C 13.09084224700928 2.24036693572998 11.23963451385498 1.000463485717773 9.478590965270996 1.000308036804199 C 8.216485023498535 1.00019645690918 7.000851631164551 1.636858940124512 6.545422077178955 2.873581886291504 C 6.0909743309021 1.640009880065918 4.868687629699707 0.9998931884765625 3.601659774780273 0.9998931884765625 M 3.601661682128906 -0.0001077651977539063 C 4.755144119262695 -0.0001077651977539063 5.79741907119751 0.4108467102050781 6.544679164886475 1.11302375793457 C 7.29006290435791 0.4110517501831055 8.328932762145996 0.0003118515014648438 9.478232383728027 0.0003118515014648438 C 11.77063179016113 0.0005121231079101563 14.09084224700928 1.656012535095215 14.09084224700928 4.819751739501953 C 14.09084224700928 6.256872177124023 13.53926181793213 7.733082294464111 12.4514217376709 9.207382202148438 C 11.26180171966553 10.81961250305176 9.45140266418457 12.38192176818848 7.070522308349609 13.85093212127686 C 6.909572124481201 13.95023727416992 6.727497100830078 13.9998893737793 6.545422077178955 13.9998893737793 C 6.363347053527832 13.9998893737793 6.181272029876709 13.95023727416992 6.020321846008301 13.85093212127686 C 3.639442443847656 12.38192176818848 1.829042434692383 10.81961250305176 0.6394224166870117 9.207382202148438 C -0.4484176635742188 7.733082294464111 -0.9999980926513672 6.256872177124023 -0.9999980926513672 4.819751739501953 C -0.9999980926513672 1.655482292175293 1.314931869506836 -0.0001077651977539063 3.601661682128906 -0.0001077651977539063 Z"/></g></svg>