<svg xmlns="http://www.w3.org/2000/svg" width="92.5" height="64.062" viewBox="0 0 92.5 64.062">
  <g id="ORDER_CANCLED" transform="translate(0 0)">
    <path id="Path_323" data-name="Path 323" d="M667.836,446.832c0,5.8-3.447,7.822-7.7,7.822s-7.7-2.024-7.7-7.822,7.7-13.173,7.7-13.173S667.836,441.034,667.836,446.832Z" transform="translate(-601.699 -403.027)" fill="#6c63ff"/>
    <path id="Path_324" data-name="Path 324" d="M646.121,372.916l3.281-6-3.269,5.242.035-2.182,2.261-4.343-2.252,3.765.064-3.924,2.422-3.457-2.411,2.84.04-7.195-.24,9.117-2.452-3.753,2.422,4.523-.229,4.382-.007-.116-2.838-3.966,2.829,4.377-.029.548-.005.008,0,.045-.582,5.848h.778l.093-.472,2.823-4.366-2.816,3.934Z" transform="translate(-587.883 -327.028)" fill="#3f3d56"/>
    <path id="Path_325" data-name="Path 325" d="M826.029,101.162c0,11.075-6.584,14.942-14.705,14.942s-14.705-3.867-14.705-14.942S811.324,76,811.324,76,826.029,90.088,826.029,101.162Z" transform="translate(-733.529 -75.999)" fill="#f2f2f2"/>
    <path id="Path_326" data-name="Path 326" d="M838.994,38.411l.151-9.269,6.268-11.467-6.244,10.013.068-4.168,4.32-8.3-4.3,7.193h0l.122-7.5L844,8.318l-4.607,5.426L839.471,0l-.478,18.195.039-.751-4.7-7.2,4.627,8.639-.438,8.371-.013-.222-5.422-7.575,5.405,8.36-.055,1.047-.01.016,0,.086-1.112,21.238H838.8l.178-10.97,5.392-8.34Z" transform="translate(-761.735 0)" fill="#3f3d56"/>
    <path id="Path_327" data-name="Path 327" d="M151.873,633.354c0,3.305-21.443,15.711-46.509,15.711s-45.388-6.42-45.388-9.726,19.822.624,44.888.624S151.873,630.048,151.873,633.354Z" transform="translate(-59.976 -585.002)" fill="#3f3d56"/>
    <path id="Path_328" data-name="Path 328" d="M151.873,633.354c0,3.305-21.443,15.711-46.509,15.711s-45.388-6.42-45.388-9.726,19.822.624,44.888.624S151.873,630.048,151.873,633.354Z" transform="translate(-59.976 -585.002)" opacity="0.1"/>
    <path id="Path_329" data-name="Path 329" d="M151.873,630.165c0,3.305-21.443,11.97-46.509,11.97s-45.388-2.68-45.388-5.985,19.822-3.117,44.888-3.117S151.873,626.86,151.873,630.165Z" transform="translate(-59.976 -581.814)" fill="#3f3d56"/>
    <ellipse id="Ellipse_61" data-name="Ellipse 61" cx="19.274" cy="1.491" rx="19.274" ry="1.491" transform="translate(26.621 53.474)" opacity="0.1"/>
    <path id="Path_330" data-name="Path 330" d="M413.669,368.965s5.643.1,4.6,1.1-4.963,0-4.963,0Z" transform="translate(-383.043 -343.874)" fill="#a0616a"/>
    <path id="Path_331" data-name="Path 331" d="M265.826,227.773s2.278-.407,3.07,1.432,2.419,7.084,2.419,7.084,4.354,2.882,5.145,2.787,2.146.1,1.9.962-.138,1.843-.71,1.964-1.481-1.026-2.177-.474-6.9-1.464-7.3-1.882-3.707-9.464-3.707-9.464S264.6,227.744,265.826,227.773Z" transform="translate(-246.956 -214.74)" fill="#6c63ff"/>
    <path id="Path_332" data-name="Path 332" d="M243.354,605.607l.261,2.194-2.194.575-1.254-.575v-1.933Z" transform="translate(-219.598 -553.74)" fill="#a0616a"/>
    <path id="Path_333" data-name="Path 333" d="M174.42,622.078l.261,2.194-2.194.575-1.254-.575v-1.933Z" transform="translate(-156.568 -568.8)" fill="#a0616a"/>
    <path id="Path_334" data-name="Path 334" d="M240.137,395.465l.993,3.6,1.463,7.314a7.2,7.2,0,0,1-.418,3.918c-.836,2.142-2.351,9.143-2.038,9.561s-3.553.731-3.5.313.575-6.165.575-6.165a46.294,46.294,0,0,1,1.1-5.695c.366-.627-1.672-2.194-1.672-2.194s-.522,6.008-1.306,6.531-.679,8.621-1.045,8.725-3.03.522-3.344,0,0-9.248,0-9.248,1.776-6.635,1.411-7.576-.157-4.963-.157-4.963-1.358-3.083-.627-4.7Z" transform="translate(-216.172 -367.579)" fill="#2f2e41"/>
    <path id="Path_335" data-name="Path 335" d="M278.84,139.969s-2.194,2.717-2.09,3.918-3.448-2.194-3.448-2.194,2.56-3.448,2.56-4.18S278.84,139.969,278.84,139.969Z" transform="translate(-255.031 -132.145)" fill="#a0616a"/>
    <circle id="Ellipse_62" data-name="Ellipse 62" cx="3.448" cy="3.448" r="3.448" transform="translate(20.334 1.946)" fill="#a0616a"/>
    <path id="Path_336" data-name="Path 336" d="M232.556,196.055a6.333,6.333,0,0,0-.322,1.8c.018.36.973.6,2.295.751,1.225.144,2.765.217,4.165.254,1.47.04,2.784.04,3.415.04,1.881,0,.366-1.2-.366-1.776s-.575-8.725-.522-9.77-.47-4.075-.47-4.65-1.229-2.075-1.229-2.075-.286.821-1.435-.276a6.109,6.109,0,0,0-2.665-1.411c-1.149.418-3.083,5.016-3.187,5.8-.042.318-.007,1.948.064,3.808.1,2.719.283,5.934.406,6.275A2.486,2.486,0,0,1,232.556,196.055Z" transform="translate(-217.464 -170.123)" fill="#6c63ff"/>
    <path id="Path_337" data-name="Path 337" d="M225.211,338.413l.366,1.306-1.411,1.463-.47-2.038Z" transform="translate(-204.538 -309.43)" fill="#a0616a"/>
    <path id="Path_338" data-name="Path 338" d="M293.815,690.477s1.1,1.254,1.933.418.784-1.358.94-1.358,2.508,2.09,2.508,2.09,4.023.94,1.829,1.62-8.412.209-8.412,0-.157-2.978.418-2.978Z" transform="translate(-272.672 -636.99)" fill="#2f2e41"/>
    <path id="Path_339" data-name="Path 339" d="M224.882,706.948s1.1,1.254,1.933.418.784-1.358.94-1.358,2.508,2.09,2.508,2.09,4.023.94,1.829,1.62-8.412.209-8.412,0-.157-2.978.418-2.978Z" transform="translate(-209.642 -652.051)" fill="#2f2e41"/>
    <path id="Path_340" data-name="Path 340" d="M278.009,86.882c-.111.072-.256.145-.368.073a16.673,16.673,0,0,1-.925-3.2,1.57,1.57,0,0,1,.095-1.141,2.8,2.8,0,0,0,.268-.376,2.547,2.547,0,0,0,.063-.694,1.374,1.374,0,0,1,.985-.988,12.966,12.966,0,0,0,1.4-.431,10.658,10.658,0,0,0,1.139-.8,1.466,1.466,0,0,1,1.314-.26c.381.154.619.543.98.741a2.858,2.858,0,0,0,.8.229,5.132,5.132,0,0,1,2.085.968,1.513,1.513,0,0,1,.379.391c.463.762-.366,1.8,0,2.611l-.79-.624a2.751,2.751,0,0,0-.706-.449.93.93,0,0,0-.809.037,1.68,1.68,0,0,0-.541,1.015c-.117.375-.374.791-.767.781-.534-.013-.721-.758-1.2-.994a.925.925,0,0,0-.972.172,1.993,1.993,0,0,0-.543.878,2.393,2.393,0,0,1-.272.614c-.143.2-.327.212-.48.358A7.548,7.548,0,0,1,278.009,86.882Z" transform="translate(-258.098 -78.735)" fill="#2f2e41"/>
    <path id="Path_341" data-name="Path 341" d="M233.432,232.457a24.345,24.345,0,0,0,1.972,2.549c1.225.144,2.765.217,4.165.254a3.3,3.3,0,0,0-.921-.848c-.679-.418-2.3-5.381-2.3-5.381s1.985-5.12,2.508-7.053-1.515-3.03-1.515-3.03c-.94-.784-2.56,1.045-2.56,1.045s-.827,2.493-1.608,4.958c.1,2.719.283,5.934.406,6.275A2.486,2.486,0,0,1,233.432,232.457Z" transform="translate(-218.34 -206.526)" opacity="0.1"/>
    <path id="Path_342" data-name="Path 342" d="M220.879,214.067s2.038,1.1,1.515,3.03-2.508,7.053-2.508,7.053,1.62,4.963,2.3,5.381,1.62,1.411.888,1.933-1.254,1.358-1.776,1.1-.522-1.724-1.411-1.724-4.493-5.434-4.545-6.008,2.978-9.718,2.978-9.718S219.938,213.284,220.879,214.067Z" transform="translate(-202.034 -202.064)" fill="#6c63ff"/>
    <path id="Path_343" data-name="Path 343" d="M457.824,370.9l-.588-.588a1.828,1.828,0,0,0-2.585,0l-11.4,11.4-11.4-11.4a1.828,1.828,0,0,0-2.585,0l-.588.588a1.828,1.828,0,0,0,0,2.585l11.4,11.4-11.4,11.4a1.828,1.828,0,0,0,0,2.585l.588.588a1.828,1.828,0,0,0,2.585,0l11.4-11.4,11.4,11.4a1.828,1.828,0,0,0,2.585,0l.588-.588a1.828,1.828,0,0,0,0-2.585l-11.4-11.4,11.4-11.4A1.828,1.828,0,0,0,457.824,370.9Z" transform="translate(-396.61 -344.616)" fill="#ff6584"/>
    <path id="Path_344" data-name="Path 344" d="M429.643,567.307l11.062-11.062-.106-.106L430.05,566.687A1.821,1.821,0,0,0,429.643,567.307Z" transform="translate(-397.983 -515.017)" opacity="0.1"/>
    <path id="Path_345" data-name="Path 345" d="M429.892,371.27a1.828,1.828,0,0,1,2.585,0l11.4,11.4,11.4-11.4a1.828,1.828,0,0,1,2.585,0l.588.588a1.828,1.828,0,0,1,.407,1.965l.339-.339a1.828,1.828,0,0,0,0-2.585l-.588-.588a1.828,1.828,0,0,0-2.585,0l-11.4,11.4-11.4-11.4a1.828,1.828,0,0,0-2.585,0l-.588.588a1.821,1.821,0,0,0-.407.62Z" transform="translate(-397.982 -344.616)" opacity="0.1"/>
    <path id="Path_346" data-name="Path 346" d="M633.755,547.436l-.852.852,11.4,11.4a1.828,1.828,0,0,1,.407,1.966l.339-.339a1.828,1.828,0,0,0,0-2.585Z" transform="translate(-583.835 -507.06)" opacity="0.1"/>
    <path id="Path_347" data-name="Path 347" d="M78.459,519.388c0,4.815-2.862,6.5-6.394,6.5s-6.394-1.681-6.394-6.5,6.394-10.941,6.394-10.941S78.459,514.573,78.459,519.388Z" transform="translate(-65.184 -471.41)" fill="#6c63ff"/>
    <path id="Path_348" data-name="Path 348" d="M50.26,445.119l2.725-4.986-2.715,4.353.029-1.812,1.878-3.607-1.87,3.127.053-3.259,2.011-2.872-2,2.359.033-5.976-.2,7.572L48.166,436.9l2.012,3.756-.19,3.64-.006-.1-2.357-3.294,2.35,3.635-.024.455,0,.007,0,.037-.483,4.857h.646l.078-.392,2.344-3.626-2.338,3.267Z" transform="translate(-43.546 -395.411)" fill="#3f3d56"/>
  </g>
</svg>
