<svg xmlns="http://www.w3.org/2000/svg" xmlns:xlink="http://www.w3.org/1999/xlink" width="110.656" height="63" viewBox="0 0 110.656 63">
  <defs>
    <linearGradient id="linear-gradient" x1="0.5" y1="1" x2="0.5" gradientUnits="objectBoundingBox">
      <stop offset="0" stop-color="gray" stop-opacity="0.251"/>
      <stop offset="0.54" stop-color="gray" stop-opacity="0.122"/>
      <stop offset="1" stop-color="gray" stop-opacity="0.102"/>
    </linearGradient>
  </defs>
  <g id="ORDER_PLACED" transform="translate(0 0)">
    <path id="Path_291" data-name="Path 291" d="M138.656,197.036a17.465,17.465,0,0,1-2.527,9.081,11.409,11.409,0,0,1-4.094,8.6A14,14,0,0,1,130,216.194c-.029.018-.059.036-.089.053l-.163.1-.051.03h0a15.922,15.922,0,0,1-7.843,2.014H49.006a19.75,19.75,0,0,1-12.865-4.575,14.56,14.56,0,0,1-5.325-11.052A17.459,17.459,0,0,1,28,193.217,17.243,17.243,0,0,1,45.12,175.853c.335,0,.666.012,1,.03,5.933-10.118,19.317-17.173,34.865-17.173a45.661,45.661,0,0,1,24.989,7.068,16.848,16.848,0,0,1,8.311-2.181A17.244,17.244,0,0,1,131.4,180.96a17.893,17.893,0,0,1-.1,1.817A17.411,17.411,0,0,1,138.656,197.036Z" transform="translate(-28 -155.388)" fill="#6c63ff" opacity="0.1"/>
    <ellipse id="Ellipse_46" data-name="Ellipse 46" cx="37.917" cy="1.016" rx="37.917" ry="1.016" transform="translate(2.031 45.101)" fill="#6c63ff" opacity="0.1"/>
    <g id="Group_205" data-name="Group 205" transform="translate(13.735 17.823)" opacity="0.7">
      <rect id="Rectangle_159" data-name="Rectangle 159" width="12.091" height="6.674" transform="translate(0 20.796)" fill="#65617d"/>
      <rect id="Rectangle_160" data-name="Rectangle 160" width="3.676" height="0.774" transform="translate(4.256 21.957)" opacity="0.1"/>
      <rect id="Rectangle_161" data-name="Rectangle 161" width="2.757" height="0.58" transform="translate(4.715 22.054)" opacity="0.1"/>
      <rect id="Rectangle_162" data-name="Rectangle 162" width="12.091" height="6.674" transform="translate(12.284 20.796)" fill="#65617d"/>
      <rect id="Rectangle_163" data-name="Rectangle 163" width="3.676" height="0.774" transform="translate(16.54 21.957)" opacity="0.1"/>
      <rect id="Rectangle_164" data-name="Rectangle 164" width="2.757" height="0.58" transform="translate(17 22.054)" opacity="0.1"/>
      <rect id="Rectangle_165" data-name="Rectangle 165" width="12.091" height="6.674" transform="translate(0 13.929)" fill="#65617d"/>
      <rect id="Rectangle_166" data-name="Rectangle 166" width="3.676" height="0.774" transform="translate(4.256 15.09)" opacity="0.1"/>
      <rect id="Rectangle_167" data-name="Rectangle 167" width="2.757" height="0.58" transform="translate(4.715 15.186)" opacity="0.1"/>
      <rect id="Rectangle_168" data-name="Rectangle 168" width="12.091" height="6.674" transform="translate(12.284 13.929)" fill="#65617d"/>
      <rect id="Rectangle_169" data-name="Rectangle 169" width="3.676" height="0.774" transform="translate(16.54 15.09)" opacity="0.1"/>
      <rect id="Rectangle_170" data-name="Rectangle 170" width="2.757" height="0.58" transform="translate(17 15.186)" opacity="0.1"/>
      <rect id="Rectangle_171" data-name="Rectangle 171" width="12.091" height="6.674" transform="translate(0 6.964)" fill="#65617d"/>
      <rect id="Rectangle_172" data-name="Rectangle 172" width="3.676" height="0.774" transform="translate(4.256 8.125)" opacity="0.1"/>
      <rect id="Rectangle_173" data-name="Rectangle 173" width="2.757" height="0.58" transform="translate(4.715 8.222)" opacity="0.1"/>
      <rect id="Rectangle_174" data-name="Rectangle 174" width="12.091" height="6.674" transform="translate(12.284 6.964)" fill="#65617d"/>
      <rect id="Rectangle_175" data-name="Rectangle 175" width="3.676" height="0.774" transform="translate(16.54 8.125)" opacity="0.1"/>
      <rect id="Rectangle_176" data-name="Rectangle 176" width="2.757" height="0.58" transform="translate(17 8.222)" opacity="0.1"/>
      <rect id="Rectangle_177" data-name="Rectangle 177" width="12.091" height="6.674" transform="translate(12.284)" fill="#65617d"/>
      <rect id="Rectangle_178" data-name="Rectangle 178" width="3.676" height="0.774" transform="translate(16.54 1.161)" opacity="0.1"/>
      <rect id="Rectangle_179" data-name="Rectangle 179" width="2.757" height="0.58" transform="translate(17 1.257)" opacity="0.1"/>
    </g>
    <g id="Group_206" data-name="Group 206" transform="translate(38.304 17.727)" opacity="0.7">
      <rect id="Rectangle_180" data-name="Rectangle 180" width="12.091" height="6.674" transform="translate(0 20.796)" fill="#65617d"/>
      <rect id="Rectangle_181" data-name="Rectangle 181" width="3.676" height="0.774" transform="translate(4.256 21.957)" opacity="0.1"/>
      <rect id="Rectangle_182" data-name="Rectangle 182" width="2.757" height="0.58" transform="translate(4.715 22.054)" opacity="0.1"/>
      <rect id="Rectangle_183" data-name="Rectangle 183" width="12.091" height="6.674" transform="translate(12.284 20.796)" fill="#65617d"/>
      <rect id="Rectangle_184" data-name="Rectangle 184" width="3.676" height="0.774" transform="translate(16.54 21.957)" opacity="0.1"/>
      <rect id="Rectangle_185" data-name="Rectangle 185" width="2.757" height="0.58" transform="translate(17 22.054)" opacity="0.1"/>
      <rect id="Rectangle_186" data-name="Rectangle 186" width="12.091" height="6.674" transform="translate(0 13.929)" fill="#65617d"/>
      <rect id="Rectangle_187" data-name="Rectangle 187" width="3.676" height="0.774" transform="translate(4.256 15.09)" opacity="0.1"/>
      <rect id="Rectangle_188" data-name="Rectangle 188" width="2.757" height="0.58" transform="translate(4.715 15.186)" opacity="0.1"/>
      <rect id="Rectangle_189" data-name="Rectangle 189" width="12.091" height="6.674" transform="translate(12.284 13.929)" fill="#65617d"/>
      <rect id="Rectangle_190" data-name="Rectangle 190" width="3.676" height="0.774" transform="translate(16.54 15.09)" opacity="0.1"/>
      <rect id="Rectangle_191" data-name="Rectangle 191" width="2.757" height="0.58" transform="translate(17 15.186)" opacity="0.1"/>
      <rect id="Rectangle_192" data-name="Rectangle 192" width="12.091" height="6.674" transform="translate(0 6.964)" fill="#65617d"/>
      <rect id="Rectangle_193" data-name="Rectangle 193" width="3.676" height="0.774" transform="translate(4.256 8.125)" opacity="0.1"/>
      <rect id="Rectangle_194" data-name="Rectangle 194" width="2.757" height="0.58" transform="translate(4.715 8.222)" opacity="0.1"/>
      <rect id="Rectangle_195" data-name="Rectangle 195" width="12.091" height="6.674" transform="translate(12.284 6.964)" fill="#65617d"/>
      <rect id="Rectangle_196" data-name="Rectangle 196" width="3.676" height="0.774" transform="translate(16.54 8.125)" opacity="0.1"/>
      <rect id="Rectangle_197" data-name="Rectangle 197" width="2.757" height="0.58" transform="translate(17 8.222)" opacity="0.1"/>
      <rect id="Rectangle_198" data-name="Rectangle 198" width="12.091" height="6.674" transform="translate(12.284)" fill="#65617d"/>
      <rect id="Rectangle_199" data-name="Rectangle 199" width="3.676" height="0.774" transform="translate(16.54 1.161)" opacity="0.1"/>
      <rect id="Rectangle_200" data-name="Rectangle 200" width="2.757" height="0.58" transform="translate(17 1.257)" opacity="0.1"/>
    </g>
    <path id="Path_292" data-name="Path 292" d="M838.455,124.381s-8.143-.491-7.186,5.216a1.387,1.387,0,0,0,.724,1.466s.015-.423.836-.279a3.822,3.822,0,0,0,.885.043,1.843,1.843,0,0,0,1.081-.447h0s2.29-.946,3.179-4.687c0,0,.659-.816.633-1.026l-1.375.587a2.451,2.451,0,0,1,.1,1.816s-.044-1.78-.309-1.741c-.053.009-.714.343-.714.343a4.064,4.064,0,0,1,.2,2.982s.231-2.128-.451-2.857l-.967.565a4.271,4.271,0,0,1,.3,3.239s.164-2.232-.508-3.1l-.876.684s.887,1.759.346,2.966c0,0-.071-2.6-.536-2.8a5.389,5.389,0,0,0-.884.954s.607,1.277.23,1.95c0,0-.231-1.731-.421-1.741a5.75,5.75,0,0,0-.844,1.935,4.171,4.171,0,0,1,.659-2.044,2.3,2.3,0,0,0-1.17.606s.119-.812,1.359-.882a5.357,5.357,0,0,1,.8-.924,5.033,5.033,0,0,0-1.98.228,2.223,2.223,0,0,1,2.206-.417l.866-.707a7.165,7.165,0,0,0-2.312.023,2.809,2.809,0,0,1,2.545-.183l.944-.559a8.644,8.644,0,0,0-2.208-.193,3.387,3.387,0,0,1,2.485.04l.677-.3s-1.014-.2-1.311-.231-.312-.113-.312-.113a3.516,3.516,0,0,1,1.9.212A8.524,8.524,0,0,0,838.455,124.381Z" transform="translate(-753.5 -124.37)" fill="#6c63ff" opacity="0.1"/>
    <path id="Path_293" data-name="Path 293" d="M771.818,139.445s-3.676-.222-3.245,2.357a.629.629,0,0,0,.326.663s.007-.193.378-.127a1.692,1.692,0,0,0,.4.019.829.829,0,0,0,.489-.2h0a2.917,2.917,0,0,0,1.437-2.117s.3-.37.285-.464l-.621.265a1.114,1.114,0,0,1,.046.821s-.02-.8-.139-.785c-.024,0-.323.155-.323.155a1.836,1.836,0,0,1,.09,1.348s.1-.961-.2-1.291l-.437.255a1.925,1.925,0,0,1,.137,1.463,2.743,2.743,0,0,0-.229-1.4l-.4.309a1.893,1.893,0,0,1,.157,1.341s-.032-1.175-.243-1.263a2.427,2.427,0,0,0-.4.431s.275.58.1.88c0,0-.1-.783-.193-.785a2.624,2.624,0,0,0-.381.871,1.891,1.891,0,0,1,.3-.924,1.041,1.041,0,0,0-.529.274s.054-.366.614-.4a2.647,2.647,0,0,1,.362-.417,2.268,2.268,0,0,0-.895.1,1,1,0,0,1,1-.189l.387-.319a3.338,3.338,0,0,0-1.045.011,1.272,1.272,0,0,1,1.15-.083l.426-.254a3.825,3.825,0,0,0-1-.086,1.527,1.527,0,0,1,1.123.017l.3-.136s-.458-.091-.593-.1-.141-.051-.141-.051a1.585,1.585,0,0,1,.861.1A3.908,3.908,0,0,0,771.818,139.445Z" transform="translate(-696.907 -137.982)" fill="#6c63ff" opacity="0.1"/>
    <ellipse id="Ellipse_47" data-name="Ellipse 47" cx="3.889" cy="0.658" rx="3.889" ry="0.658" transform="translate(17.796 61.051)" fill="#6c63ff"/>
    <path id="Path_294" data-name="Path 294" d="M235.232,734.469a1.126,1.126,0,0,0,.37-.56.5.5,0,0,0-.259-.57c-.238-.091-.492.074-.685.241a.914.914,0,0,1-.665.321,1.016,1.016,0,0,0,.313-.949.4.4,0,0,0-.087-.193c-.133-.141-.371-.081-.53.03a1.975,1.975,0,0,0-.646,1.652,3.1,3.1,0,0,1-.009-.677.7.7,0,0,0-.256-.6.766.766,0,0,0-.387-.091.8.8,0,0,0-.632.18.623.623,0,0,0,.024.774,2.461,2.461,0,0,0,.655.524,1.452,1.452,0,0,1,.467.446.4.4,0,0,1,.035.08h1.418A3.944,3.944,0,0,0,235.232,734.469Z" transform="translate(-211.938 -673.836)" fill="#6c63ff"/>
    <path id="Path_295" data-name="Path 295" d="M712.969,462.81a.44.44,0,0,0-.241-.346.45.45,0,0,0-.6.251l-2.148,4.52-.484,17.8h.774l.29-17.758,2.364-4.184A.459.459,0,0,0,712.969,462.81Z" transform="translate(-643.58 -429.728)" fill="#3f3d56"/>
    <path id="Path_296" data-name="Path 296" d="M420.18,716.87a14.01,14.01,0,0,1-2.039,1.481.331.331,0,0,1-.038.044.629.629,0,0,1-.266.134h0a15.923,15.923,0,0,1-7.843,2.014H356.812c-6.094-.627-9.812-1.458-9.812-2.37,0-.707,2.232-1.366,6.076-1.917q.6-.087,1.247-.168.4-.05.817-.1l.473-.055q.526-.06,1.08-.117h.03l.387-.039q.49-.051,1-.1l.248-.022.632-.056q.615-.055,1.257-.105l1.083-.083c3.72-.276,8.009-.484,12.676-.618l1.333-.045.449-.01.948-.021.38-.008.4-.008.284,0,1.335-.021.686-.01h.14q2.433-.029,4.956-.03c3.325,0,6.55.04,9.623.115h0q2.646.064,5.131.163h.015c4.776.188,9.052.464,12.59.808l.065.007c.908.088,1.768.182,2.575.279.759.091,1.472.187,2.134.284.229.034.452.069.668.1l.055.01C418.694,716.555,419.5,716.706,420.18,716.87Z" transform="translate(-316.144 -657.544)" fill="#6c63ff" opacity="0.1"/>
    <path id="Path_297" data-name="Path 297" d="M762.879,321.765a.332.332,0,0,1-.038.044.63.63,0,0,1-.266.133h0a2.681,2.681,0,0,1-.6.1h-.061a2.6,2.6,0,0,1-.347-.012,1.619,1.619,0,0,0-.254-.016H761.3a1.809,1.809,0,0,0-.363.09,3.217,3.217,0,0,1-.8.114h-.1c-.3,0-.611-.011-.916-.009h-.148c-.522.014-1.042.1-1.564.105h-.167a2.461,2.461,0,0,1-1.442-.431.57.57,0,0,1-.193-.217.608.608,0,0,1-.034-.29.683.683,0,0,1,.175-.484.762.762,0,0,1,.279-.134c.177-.057.355-.112.532-.167s.379-.114.57-.17l.037-.012.106-.032.069-.023a1.125,1.125,0,0,0,.238-.108.789.789,0,0,0,.245-.245c.011-.017.022-.036.032-.054s0-.03-.007-.045c-.016-.121-.029-.245-.05-.363a1.451,1.451,0,0,1-.715-.4,2.3,2.3,0,0,1-.417-.564,11.813,11.813,0,0,1-.545-1.439,12.823,12.823,0,0,0-1.081-2.076c-.37-.617-.741-1.236-1.161-1.819-.28-.387-.58-.755-.857-1.143a10.156,10.156,0,0,1-1.652-3.608,4.771,4.771,0,0,0-.2-.733,7.452,7.452,0,0,0-.707-1.108,3.672,3.672,0,0,1-.512-1.313c-.048-.265-.13-.551-.394-.58h0l-.028.055a12.682,12.682,0,0,1-1.935,3.016,3.2,3.2,0,0,0-.361.415,3.984,3.984,0,0,0-.232.447,2.9,2.9,0,0,1-.514.752,1.463,1.463,0,0,1-.2.171,1.092,1.092,0,0,1-.318.16h0a.939.939,0,0,1-.137.031c0,.012,0,.022.006.034s.006.025.008.038a4.546,4.546,0,0,1-.177,2.315c-.007.023-.015.045-.023.069q-.06.163-.131.319c-.118.256-.258.5-.369.762-.018.044-.037.089-.053.133a10.806,10.806,0,0,0-.34,3.306,3.64,3.64,0,0,1-.086.724c-.066.268-.171.545-.229.821a1.389,1.389,0,0,0-.013.634l-.023.009c-.1.039-.209.074-.314.106v.015c.038.217.075.433.112.649a.95.95,0,0,0,.2.518.71.71,0,0,1,.1.1c.076.12.009.279.023.421.021.2.207.372.178.573a.377.377,0,0,1-.226.269.668.668,0,0,1-.149.047l-.032.007c-.058.011-.116.016-.174.022a8.115,8.115,0,0,1-2.165.021c-.141-.024-.281-.056-.425-.068a3.169,3.169,0,0,0-.542.022,26.594,26.594,0,0,1-3.984.077,1.1,1.1,0,0,1-.925-.37,1.071,1.071,0,0,1-.02-.841.9.9,0,0,1,.117-.29.186.186,0,0,1,.021-.027.964.964,0,0,1,.8-.226l.942.028a.882.882,0,0,0,.277-.021,2.915,2.915,0,0,0,.412-.235c.18-.086.406-.1.536-.244l.016-.021a1.156,1.156,0,0,0,.064-.1c0-.007.009-.014.013-.02h0l.012-.017a1.531,1.531,0,0,1,.5-.309.506.506,0,0,0,.073-.051l.019-.017a1.985,1.985,0,0,1-.47-.473.476.476,0,0,1-.107-.188.272.272,0,0,1,.012-.158.246.246,0,0,1,.016-.036l0-.01c.066-.13.2-.247.276-.379a.061.061,0,0,0,.007-.014.6.6,0,0,0-.029-.649c.077-1.274.427-2.515.5-3.793.031-.506.018-1.014.042-1.522s.077-1,.134-1.5a22.88,22.88,0,0,0,.394-3.4,2.081,2.081,0,0,1,.014-.319q0-.012,0-.023a1.962,1.962,0,0,1,.216-.669,5.135,5.135,0,0,1,.475-.669,6.877,6.877,0,0,0,1.521-2.5,5.406,5.406,0,0,1,.592-1.383,2.437,2.437,0,0,1,.517-.726,2.274,2.274,0,0,0,.341-.29,2.725,2.725,0,0,0,.258-.732c.048-.127.123-.243.16-.373a.2.2,0,0,1,.01-.04,2.618,2.618,0,0,0,.034-.4.885.885,0,0,1,.011-.114h0a4.042,4.042,0,0,1,.33-1.106c.02-.044.04-.09.059-.134a4.145,4.145,0,0,1-1.161-1.007,2.385,2.385,0,0,1-.281-.425,5.26,5.26,0,0,1-.339-1.28,21.79,21.79,0,0,1-.81-3.062,3.386,3.386,0,0,0-.112-.96,1.908,1.908,0,0,0-.109-.24c-.017-.033-.034-.066-.051-.1l-.019-.037-.049-.1-.079.062a57.933,57.933,0,0,1-6.22,4.248l-.186.11a.677.677,0,0,0-.246.2c-.008.013-.015.025-.021.038h0c-.044.092-.056.193-.1.29a.792.792,0,0,1-.539.428,1.663,1.663,0,0,1-1.224-.158,1.466,1.466,0,0,1-.139-.077,1.884,1.884,0,0,1-.356.152,4.217,4.217,0,0,1-1.193.106,3.582,3.582,0,0,0-1.189.132,2.972,2.972,0,0,1-.762.242.706.706,0,0,1-.091,0,1.318,1.318,0,0,1-.431-.127l-.079-.036a1.3,1.3,0,0,1-.12-.065.662.662,0,0,1-.117-.092.428.428,0,0,1-.108-.185.307.307,0,0,1,0-.154.1.1,0,0,1,.033-.058.1.1,0,0,1,.057-.014,1.74,1.74,0,0,1,.331.028,1.2,1.2,0,0,0,.193.011h.035a.42.42,0,0,0,.29-.164.182.182,0,0,0,.025-.046h0a.214.214,0,0,0,.017-.086.169.169,0,0,0,0-.022c-.041-.018-.081-.037-.12-.059-.02-.011-.04-.022-.059-.034l-.012-.008a.658.658,0,0,1-.1-.08.339.339,0,0,1-.049-.062.369.369,0,0,1-.057-.116h0a.52.52,0,0,0-.241.007c-.105.029-.212.091-.316.112a.281.281,0,0,1-.16-.007c-.151-.054-.2-.238-.236-.4-.006-.03-.013-.061-.017-.092h0a.49.49,0,0,1,0-.18.662.662,0,0,1,.254-.332l.317-.266.023-.019a.552.552,0,0,0-.015-.078.5.5,0,0,1,0-.181.66.66,0,0,1,.254-.331l.7-.591a.825.825,0,0,1,.446-.238c.254-.017.458.193.648.363a1.471,1.471,0,0,0,.851.408,1.251,1.251,0,0,0,.45-.062l.082-.027c-.017-.036-.035-.072-.051-.107-.028-.059-.056-.119-.083-.179a1.921,1.921,0,0,0,1.1-.523c.312-.271.58-.591.9-.857.34-.29.731-.506,1.077-.785.8-.651,1.336-1.608,2.195-2.181a2.853,2.853,0,0,0,.845-.658c.063-.1.11-.193.175-.29a3.059,3.059,0,0,1,.85-.625,4.228,4.228,0,0,0,.782-.78c.168-.2.338-.4.5-.612.148-.276.273-.564.428-.836a4.1,4.1,0,0,1,.457-.646c.04-.077.08-.155.124-.23s.076-.127.116-.193c.028-.044.057-.085.087-.128-.088-.156-.172-.29-.212-.349l-.019-.026a2.908,2.908,0,0,0-.273-.255,2.576,2.576,0,0,1-.3-.064,2.822,2.822,0,0,1-2.076-2.725.028.028,0,0,1,0-.009,2.806,2.806,0,0,1,.308-1.275c.041-.079.084-.156.132-.23a.871.871,0,0,1-.129-.052.509.509,0,0,1-.18-.148.428.428,0,0,1-.074-.188.956.956,0,0,1,.07-.468,2.236,2.236,0,0,1,.09-.209l.007-.013a2.688,2.688,0,0,1,2.275-1.443,4.1,4.1,0,0,1,2.744,1.094,3.679,3.679,0,0,1,.623.655,3.963,3.963,0,0,1,.648,2.017,3.091,3.091,0,0,1-.012.669,1.6,1.6,0,0,1-.048.234c-.013.045-.029.091-.047.136a.9.9,0,0,1-.043.1v0c-.015.031-.031.06-.047.089l-.009.013-.013.02c.008.018.016.038.025.056s.016.036.026.053h.012c.193.015.372.043.57.058a1.311,1.311,0,0,1,.275.043,1.838,1.838,0,0,1,.5.313c.4.284.9.417,1.293.711a5.181,5.181,0,0,1,1.223,1.79,20.39,20.39,0,0,1,1.554,2.509q.226.626.455,1.25a19.483,19.483,0,0,0,1,2.4,35.35,35.35,0,0,1,1.77,3.155.5.5,0,0,0,.236.261,20.526,20.526,0,0,1,1.63,2.727,5.111,5.111,0,0,1,.556,1.58,3.811,3.811,0,0,1-.121,1.476,7.155,7.155,0,0,1-.283.838,1.386,1.386,0,0,0-.1.3v.032a2.731,2.731,0,0,0,.071.555,1.027,1.027,0,0,1-.049.443c-.008.022-.016.044-.025.067a2.39,2.39,0,0,0-.152.352.346.346,0,0,0-.008.045,1.792,1.792,0,0,0,.1.632,8.477,8.477,0,0,1,.1,2.321c-.022.387.29.7.551.983a10.588,10.588,0,0,1,1.227,1.784,5.707,5.707,0,0,1,.5,1,8.37,8.37,0,0,1,.27,1.233c.247,1.277,1.052,2.4,1.271,3.684a3.289,3.289,0,0,0,.748,1.584,3.357,3.357,0,0,1,.322.387,1.548,1.548,0,0,1,.16.348,2.581,2.581,0,0,1,.133.883,1.326,1.326,0,0,0,.024.429c.091.3.416.46.55.74s.042.637.1.955a1.03,1.03,0,0,0,.387.644c-.077.068-.159.13-.242.193a.969.969,0,0,1,.2.211.947.947,0,0,1,.1.171c.128.3.132.65.236.967a.7.7,0,0,1,.069.4.444.444,0,0,0-.033.12c0,.087.091.144.126.223A.24.24,0,0,1,762.879,321.765Z" transform="translate(-660.882 -260.959)" fill="url(#linear-gradient)"/>
    <path id="Path_298" data-name="Path 298" d="M860.648,324.042a6.042,6.042,0,0,0,1.636-.823l1.8-1.146a1.565,1.565,0,0,1-1.161-.809,4.083,4.083,0,0,1-.439-1.394,7.293,7.293,0,0,0-2.069,1.354c-.248.214-.774.537-.85.871s.411.6.6.828C860.229,323,860.84,323.989,860.648,324.042Z" transform="translate(-779.122 -300.959)" fill="#fbbebe"/>
    <path id="Path_299" data-name="Path 299" d="M860.648,324.042a6.042,6.042,0,0,0,1.636-.823l1.8-1.146a1.565,1.565,0,0,1-1.161-.809,4.083,4.083,0,0,1-.439-1.394,7.293,7.293,0,0,0-2.069,1.354c-.248.214-.774.537-.85.871s.411.6.6.828C860.229,323,860.84,323.989,860.648,324.042Z" transform="translate(-779.122 -300.959)" opacity="0.1"/>
    <path id="Path_300" data-name="Path 300" d="M732.589,456.571a2,2,0,0,1-1.01.306,1.467,1.467,0,0,1-.85-.405c-.193-.168-.393-.378-.647-.361a.829.829,0,0,0-.445.236l-.7.587a.66.66,0,0,0-.254.329.652.652,0,0,0,.016.273c.032.157.085.34.236.393s.315-.061.475-.1a.559.559,0,0,1,.548.161.327.327,0,0,1,.1.211c0,.175-.193.29-.371.3s-.348-.049-.524-.039a.08.08,0,0,0-.09.072.37.37,0,0,0,.113.337.984.984,0,0,0,.315.193,1.289,1.289,0,0,0,.431.126,2.291,2.291,0,0,0,.851-.241,3.679,3.679,0,0,1,1.188-.131,4.193,4.193,0,0,0,1.191-.105,1.351,1.351,0,0,0,.9-.731.176.176,0,0,0,.016-.112.185.185,0,0,0-.081-.1c-.54-.4-.758-.885-1.366-1.172Z" transform="translate(-660.899 -424.021)" fill="#fbbebe"/>
    <path id="Path_301" data-name="Path 301" d="M732.589,456.571a2,2,0,0,1-1.01.306,1.467,1.467,0,0,1-.85-.405c-.193-.168-.393-.378-.647-.361a.829.829,0,0,0-.445.236l-.7.587a.66.66,0,0,0-.254.329.652.652,0,0,0,.016.273c.032.157.085.34.236.393s.315-.061.475-.1a.559.559,0,0,1,.548.161.327.327,0,0,1,.1.211c0,.175-.193.29-.371.3s-.348-.049-.524-.039a.08.08,0,0,0-.09.072.37.37,0,0,0,.113.337.984.984,0,0,0,.315.193,1.289,1.289,0,0,0,.431.126,2.291,2.291,0,0,0,.851-.241,3.679,3.679,0,0,1,1.188-.131,4.193,4.193,0,0,0,1.191-.105,1.351,1.351,0,0,0,.9-.731.176.176,0,0,0,.016-.112.185.185,0,0,0-.081-.1c-.54-.4-.758-.885-1.366-1.172Z" transform="translate(-660.899 -424.021)" opacity="0.1"/>
    <path id="Path_302" data-name="Path 302" d="M774.759,352.489a1.167,1.167,0,0,0-1.023-.119,2.209,2.209,0,0,0-.881.587,4.05,4.05,0,0,0-.622.821c-.164.29-.29.594-.455.883a9.4,9.4,0,0,1-1.05,1.427,4.054,4.054,0,0,1-.781.774,3.033,3.033,0,0,0-.849.621c-.065.091-.111.193-.175.285a2.808,2.808,0,0,1-.844.653c-.857.571-1.39,1.521-2.191,2.168-.345.279-.735.5-1.075.782-.316.264-.58.58-.9.851a1.916,1.916,0,0,1-1.1.519,5.651,5.651,0,0,0,1.074,1.69,1.915,1.915,0,0,0,1.82.595.791.791,0,0,0,.539-.426,1.825,1.825,0,0,1,.114-.33.678.678,0,0,1,.245-.2,57.823,57.823,0,0,0,7.362-5.1c.622-.507,1.239-.96,1.877-1.451a4.1,4.1,0,0,0,.632-.553,2.1,2.1,0,0,0,.255-2.317,5.5,5.5,0,0,0-.586-.794A6.979,6.979,0,0,0,774.759,352.489Z" transform="translate(-691.743 -330.255)" fill="#6c63ff"/>
    <path id="Path_303" data-name="Path 303" d="M774.759,352.489a1.167,1.167,0,0,0-1.023-.119,2.209,2.209,0,0,0-.881.587,4.05,4.05,0,0,0-.622.821c-.164.29-.29.594-.455.883a9.4,9.4,0,0,1-1.05,1.427,4.054,4.054,0,0,1-.781.774,3.033,3.033,0,0,0-.849.621c-.065.091-.111.193-.175.285a2.808,2.808,0,0,1-.844.653c-.857.571-1.39,1.521-2.191,2.168-.345.279-.735.5-1.075.782-.316.264-.58.58-.9.851a1.916,1.916,0,0,1-1.1.519,5.651,5.651,0,0,0,1.074,1.69,1.915,1.915,0,0,0,1.82.595.791.791,0,0,0,.539-.426,1.825,1.825,0,0,1,.114-.33.678.678,0,0,1,.245-.2,57.823,57.823,0,0,0,7.362-5.1c.622-.507,1.239-.96,1.877-1.451a4.1,4.1,0,0,0,.632-.553,2.1,2.1,0,0,0,.255-2.317,5.5,5.5,0,0,0-.586-.794A6.979,6.979,0,0,0,774.759,352.489Z" transform="translate(-691.743 -330.255)" opacity="0.1"/>
    <path id="Path_304" data-name="Path 304" d="M807.979,719.4a1.479,1.479,0,0,0-.5.308c-.039.05-.065.109-.106.158-.129.151-.357.158-.536.244a2.6,2.6,0,0,1-.411.233.894.894,0,0,1-.278.021l-.94-.028a.935.935,0,0,0-.82.25.886.886,0,0,0-.118.29,1.076,1.076,0,0,0,.02.836,1.116,1.116,0,0,0,.924.369A26.644,26.644,0,0,0,809.2,722a3.153,3.153,0,0,1,.54-.022c.143.012.283.044.425.068a8.133,8.133,0,0,0,2.162-.021,1.128,1.128,0,0,0,.355-.075.376.376,0,0,0,.225-.268c.03-.2-.157-.369-.177-.569-.015-.141.053-.3-.024-.419a.687.687,0,0,0-.1-.1.952.952,0,0,1-.2-.515l-.169-.993a.306.306,0,0,0-.081-.188.28.28,0,0,0-.12-.049,6.419,6.419,0,0,0-2.225.078,5.979,5.979,0,0,1-1.138.057c-.164-.011-.228-.03-.351.077S808.133,719.313,807.979,719.4Z" transform="translate(-729.119 -661.285)" fill="#3f3d56"/>
    <path id="Path_305" data-name="Path 305" d="M1008.547,726.984a1.632,1.632,0,0,1-.412.161q-.57.166-1.138.347a.755.755,0,0,0-.278.134.675.675,0,0,0-.175.484.606.606,0,0,0,.034.29.58.58,0,0,0,.193.215,2.539,2.539,0,0,0,1.543.429c.544,0,1.083-.092,1.627-.106a7.718,7.718,0,0,0,1.963-.108,1.674,1.674,0,0,1,.373-.091,1.594,1.594,0,0,1,.253.016,2.686,2.686,0,0,0,1.008-.092.62.62,0,0,0,.267-.132.25.25,0,0,0,.072-.273c-.035-.078-.124-.135-.125-.221a.413.413,0,0,1,.032-.12.68.68,0,0,0-.069-.4,4.247,4.247,0,0,0-.328-1.127,1.427,1.427,0,0,0-1.023-.509,2.836,2.836,0,0,0-.953.027c-.353.075-.683.233-1.029.334a3.366,3.366,0,0,1-1.238.117c-.277-.023-.182.02-.276.252a.823.823,0,0,1-.322.374Z" transform="translate(-911.888 -667.671)" fill="#3f3d56"/>
    <ellipse id="Ellipse_48" data-name="Ellipse 48" cx="2.805" cy="2.805" rx="2.805" ry="2.805" transform="translate(78.397 16.131)" fill="#fbbebe"/>
    <path id="Path_306" data-name="Path 306" d="M861.4,365.794a4.971,4.971,0,0,1-3.192,1.086,2.622,2.622,0,0,1-1.4-.3c-.029-.159-.041-.33-.07-.488a1.784,1.784,0,0,1-1.13-.962,11.558,11.558,0,0,1-.545-1.43,12.778,12.778,0,0,0-1.079-2.063c-.37-.613-.74-1.228-1.161-1.808-.279-.387-.58-.751-.856-1.137a10.058,10.058,0,0,1-1.649-3.585,4.688,4.688,0,0,0-.2-.728,7.422,7.422,0,0,0-.706-1.1,3.642,3.642,0,0,1-.512-1.3c-.047-.263-.129-.547-.393-.575h0a12.671,12.671,0,0,1-1.961,3.052,3.164,3.164,0,0,0-.361.412,3.962,3.962,0,0,0-.232.445,2.868,2.868,0,0,1-.513.747,1.2,1.2,0,0,1-.66.36,4.511,4.511,0,0,1-.317,2.757c-.117.255-.257.5-.368.757a9.683,9.683,0,0,0-.394,3.418,3.6,3.6,0,0,1-.085.719,3.145,3.145,0,0,0-.242,1.446,7.6,7.6,0,0,1-3.845.239,1.852,1.852,0,0,1-.717-.218,1.972,1.972,0,0,1-.47-.47.471.471,0,0,1-.107-.187c-.05-.221.193-.387.307-.58a.587.587,0,0,0-.022-.659c.077-1.266.427-2.5.5-3.772.031-.5.018-1.008.042-1.512s.077-.994.133-1.49a22.577,22.577,0,0,0,.394-3.376,1.964,1.964,0,0,1,.233-1.005,5.072,5.072,0,0,1,.474-.665,6.805,6.805,0,0,0,1.52-2.483,5.372,5.372,0,0,1,.591-1.374,2.432,2.432,0,0,1,.516-.723,2.261,2.261,0,0,0,.341-.29,2.68,2.68,0,0,0,.258-.727c.048-.126.123-.242.159-.371a2.128,2.128,0,0,0,.043-.435,4.072,4.072,0,0,1,.4-1.349,4.134,4.134,0,0,1-1.161-1,2.449,2.449,0,0,1-.281-.423,5.193,5.193,0,0,1-.339-1.271,21.7,21.7,0,0,1-.809-3.043,3.381,3.381,0,0,0-.111-.954,3.006,3.006,0,0,0-.18-.372,1.523,1.523,0,0,1-.153-.375,6.535,6.535,0,0,1,0-.871,6.3,6.3,0,0,0-.187-.747,3.539,3.539,0,0,1-.028-.987,8.088,8.088,0,0,0,.075-1.168,4.515,4.515,0,0,1,1.214-3.476l.022-.022c.185-.193.387-.365.553-.57.226-.275.387-.6.626-.865.1-.119.222-.225.326-.345a2.873,2.873,0,0,1,.314-.352.484.484,0,0,1,.437-.117,1.213,1.213,0,0,0,.133.412c.2.015.38.044.58.059a1.308,1.308,0,0,1,.275.043,1.787,1.787,0,0,1,.5.31c.4.283.9.415,1.292.707a5.109,5.109,0,0,1,1.221,1.779A19.787,19.787,0,0,1,850,332.909l.454,1.242a19.414,19.414,0,0,0,1,2.388,35.916,35.916,0,0,1,1.768,3.136.506.506,0,0,0,.235.259,20.229,20.229,0,0,1,1.628,2.708,5.041,5.041,0,0,1,.555,1.57,4.568,4.568,0,0,1-.4,2.3,1.2,1.2,0,0,0-.1.329,2.69,2.69,0,0,0,.071.551,1.021,1.021,0,0,1-.074.507,2.315,2.315,0,0,0-.152.35,1.524,1.524,0,0,0,.091.671,8.362,8.362,0,0,1,.1,2.306c-.022.387.29.694.55.977a10.454,10.454,0,0,1,1.226,1.772,5.725,5.725,0,0,1,.5.994,8.242,8.242,0,0,1,.27,1.226c.246,1.268,1.05,2.389,1.269,3.661a3.253,3.253,0,0,0,.747,1.574,3.441,3.441,0,0,1,.322.387,1.558,1.558,0,0,1,.159.346,2.55,2.55,0,0,1,.132.877,1.315,1.315,0,0,0,.024.427c.091.3.416.458.549.735s.042.634.1.949a1.022,1.022,0,0,0,.382.642Z" transform="translate(-759.859 -307.484)" fill="#6c63ff"/>
    <path id="Path_307" data-name="Path 307" d="M738.589,447.571a2,2,0,0,1-1.01.306,1.467,1.467,0,0,1-.85-.405c-.193-.168-.393-.378-.647-.361a.829.829,0,0,0-.445.236l-.7.587a.659.659,0,0,0-.254.329.65.65,0,0,0,.016.273c.032.157.085.339.236.393s.315-.061.475-.1a.559.559,0,0,1,.548.162.326.326,0,0,1,.1.211c0,.175-.193.29-.371.3s-.348-.049-.524-.039a.08.08,0,0,0-.09.072.369.369,0,0,0,.113.337.98.98,0,0,0,.315.193,1.286,1.286,0,0,0,.431.126,2.291,2.291,0,0,0,.851-.241,3.68,3.68,0,0,1,1.188-.131,4.193,4.193,0,0,0,1.191-.105,1.351,1.351,0,0,0,.9-.731.176.176,0,0,0,.016-.112.186.186,0,0,0-.081-.1c-.54-.4-.758-.885-1.366-1.172Z" transform="translate(-666.319 -415.891)" fill="#fbbebe"/>
    <path id="Path_308" data-name="Path 308" d="M840.39,280.953a2.4,2.4,0,0,0-.468.2.807.807,0,0,1-.662-.035.511.511,0,0,1-.181-.147.716.716,0,0,1,0-.652,2.659,2.659,0,0,1,2.37-1.654,4.1,4.1,0,0,1,2.74,1.086,3.744,3.744,0,0,1,.622.651,3.932,3.932,0,0,1,.647,2,2.61,2.61,0,0,1-.059.9,1.091,1.091,0,0,1-.509.686,1,1,0,0,1-.888-.039,3.752,3.752,0,0,1-.759-.553,1.129,1.129,0,0,0-.378-.241.387.387,0,0,0-.409.1c-.13.156-.1.411-.215.58a.675.675,0,0,1-.571.193.628.628,0,0,1-.541-.182.68.68,0,0,1-.054-.554,1.813,1.813,0,0,0,.1-.566c-.04-.387-.378-.625-.484-.981-.069-.233.082-.332.067-.543A.3.3,0,0,0,840.39,280.953Z" transform="translate(-760.552 -263.741)" fill="#3f3d56"/>
    <path id="Path_309" data-name="Path 309" d="M909.327,516.707v.024h0a12.669,12.669,0,0,1-1.961,3.052,3.169,3.169,0,0,0-.361.412,3.988,3.988,0,0,0-.232.445,2.867,2.867,0,0,1-.513.747l-.7.35,2.225-11.607Z" transform="translate(-820.676 -472.816)" opacity="0.1"/>
    <path id="Path_310" data-name="Path 310" d="M869.8,352.937a4.1,4.1,0,0,1-.632.553c-.638.484-1.257.94-1.878,1.451q-.75.61-1.521,1.2a1.527,1.527,0,0,1-.153-.375,6.546,6.546,0,0,1,0-.871,6.29,6.29,0,0,0-.187-.747,3.544,3.544,0,0,1-.028-.987,8.1,8.1,0,0,0,.075-1.168,4.514,4.514,0,0,1,1.22-3.483l.022-.022a1.7,1.7,0,0,1,.329-.147,1.167,1.167,0,0,1,1.023.124,6.978,6.978,0,0,1,1.393,1.366,5.492,5.492,0,0,1,.586.794,2.1,2.1,0,0,1-.251,2.317Z" transform="translate(-784.386 -326.613)" opacity="0.1"/>
    <path id="Path_311" data-name="Path 311" d="M780.759,343.489a1.167,1.167,0,0,0-1.023-.119,2.209,2.209,0,0,0-.881.587,4.052,4.052,0,0,0-.622.821c-.164.29-.29.594-.455.883a9.387,9.387,0,0,1-1.05,1.427,4.054,4.054,0,0,1-.781.774,3.034,3.034,0,0,0-.849.621c-.065.091-.111.193-.175.285a2.808,2.808,0,0,1-.844.653c-.857.571-1.39,1.521-2.191,2.168-.345.279-.735.5-1.075.782-.316.264-.58.58-.9.851a1.916,1.916,0,0,1-1.1.519,5.649,5.649,0,0,0,1.074,1.69,1.915,1.915,0,0,0,1.82.595.791.791,0,0,0,.539-.426,1.816,1.816,0,0,1,.114-.33.677.677,0,0,1,.245-.2,57.826,57.826,0,0,0,7.362-5.1c.622-.507,1.239-.96,1.877-1.451a4.1,4.1,0,0,0,.632-.553,2.1,2.1,0,0,0,.255-2.317,5.5,5.5,0,0,0-.586-.794,6.978,6.978,0,0,0-1.393-1.366Z" transform="translate(-697.163 -322.126)" fill="#6c63ff"/>
    <g id="Group_207" data-name="Group 207" transform="translate(78.445 16.172)" opacity="0.1">
      <path id="Path_312" data-name="Path 312" d="M841.85,295.288a.643.643,0,0,1-.541-.182.684.684,0,0,1-.054-.554,1.817,1.817,0,0,0,.1-.566c-.04-.387-.378-.625-.484-.981-.069-.233.082-.332.067-.543a.306.306,0,0,0-.362-.25,2.4,2.4,0,0,0-.468.2.807.807,0,0,1-.662-.035.51.51,0,0,1-.181-.147.716.716,0,0,1,0-.652c0-.008.007-.014.01-.022a2.336,2.336,0,0,0-.2.409.716.716,0,0,0,0,.652.511.511,0,0,0,.181.147.807.807,0,0,0,.662.035,2.4,2.4,0,0,1,.468-.2.306.306,0,0,1,.362.25c.016.211-.135.31-.067.543.1.356.442.6.484.981a1.7,1.7,0,0,1-.1.566.674.674,0,0,0,.054.554.917.917,0,0,0,1.111-.012.815.815,0,0,0,.1-.3A.819.819,0,0,1,841.85,295.288Z" transform="translate(-838.987 -291.56)"/>
      <path id="Path_313" data-name="Path 313" d="M878.005,321.753a1,1,0,0,1-.888-.039,3.746,3.746,0,0,1-.759-.553,1.128,1.128,0,0,0-.378-.241.387.387,0,0,0-.409.1.733.733,0,0,0-.121.325.409.409,0,0,1,.337-.036,1.128,1.128,0,0,1,.378.241,3.816,3.816,0,0,0,.759.553,1.007,1.007,0,0,0,.888.039,1.076,1.076,0,0,0,.5-.651A.9.9,0,0,1,878.005,321.753Z" transform="translate(-871.923 -318.06)"/>
    </g>
    <ellipse id="Ellipse_49" data-name="Ellipse 49" cx="2.902" cy="2.902" rx="2.902" ry="2.902" transform="translate(57.553 55.644)" fill="#3f3d56"/>
    <ellipse id="Ellipse_50" data-name="Ellipse 50" cx="2.902" cy="2.902" rx="2.902" ry="2.902" transform="translate(57.553 55.644)" opacity="0.1"/>
    <ellipse id="Ellipse_51" data-name="Ellipse 51" cx="1.838" cy="1.838" rx="1.838" ry="1.838" transform="translate(58.617 56.708)" fill="#65617d"/>
    <ellipse id="Ellipse_52" data-name="Ellipse 52" cx="1.838" cy="1.838" rx="1.838" ry="1.838" transform="translate(58.617 56.708)" opacity="0.1"/>
    <path id="Path_314" data-name="Path 314" d="M630,679.92l1.9,4.3a.37.37,0,0,0,.67.014l2.262-4.608Z" transform="translate(-571.77 -625.921)" fill="#3f3d56"/>
    <path id="Path_315" data-name="Path 315" d="M630,679.92l1.9,4.3a.37.37,0,0,0,.67.014l2.262-4.608Z" transform="translate(-571.77 -625.921)" opacity="0.1"/>
    <ellipse id="Ellipse_53" data-name="Ellipse 53" cx="2.902" cy="2.902" rx="2.902" ry="2.902" transform="translate(39.465 55.644)" fill="#3f3d56"/>
    <ellipse id="Ellipse_54" data-name="Ellipse 54" cx="2.902" cy="2.902" rx="2.902" ry="2.902" transform="translate(39.465 55.644)" opacity="0.1"/>
    <ellipse id="Ellipse_55" data-name="Ellipse 55" cx="1.838" cy="1.838" rx="1.838" ry="1.838" transform="translate(40.529 56.708)" fill="#65617d"/>
    <ellipse id="Ellipse_56" data-name="Ellipse 56" cx="1.838" cy="1.838" rx="1.838" ry="1.838" transform="translate(40.529 56.708)" opacity="0.1"/>
    <path id="Path_316" data-name="Path 316" d="M443,679.92l1.9,4.3a.369.369,0,0,0,.67.014l2.262-4.608Z" transform="translate(-402.858 -625.921)" fill="#3f3d56"/>
    <path id="Path_317" data-name="Path 317" d="M443,679.92l1.9,4.3a.369.369,0,0,0,.67.014l2.262-4.608Z" transform="translate(-402.858 -625.921)" opacity="0.1"/>
    <path id="Path_318" data-name="Path 318" d="M722.485,464.81a.44.44,0,0,0-.241-.346.45.45,0,0,0-.6.251l-1.665,4.133L719.5,487.42h.774l.29-18.532,1.88-3.8A.459.459,0,0,0,722.485,464.81Z" transform="translate(-652.613 -431.534)" fill="#3f3d56"/>
    <path id="Path_319" data-name="Path 319" d="M368.5,545.146l2.612-1.644,28.2-.242.725,1.886Z" transform="translate(-332.856 -490.711)" fill="#6c63ff"/>
    <path id="Path_320" data-name="Path 320" d="M368.5,561.611V559.87l32.044-.31-.031,1.18H369.08v.87Z" transform="translate(-332.856 -505.435)" fill="#3f3d56"/>
    <ellipse id="Ellipse_57" data-name="Ellipse 57" cx="2.902" cy="2.902" rx="2.902" ry="2.902" transform="translate(36.805 56.66)" fill="#3f3d56"/>
    <ellipse id="Ellipse_58" data-name="Ellipse 58" cx="1.838" cy="1.838" rx="1.838" ry="1.838" transform="translate(37.869 57.724)" fill="#65617d"/>
    <path id="Path_321" data-name="Path 321" d="M415.5,690.42l1.9,4.3a.369.369,0,0,0,.67.014l2.262-4.608Z" transform="translate(-378.018 -635.405)" fill="#3f3d56"/>
    <ellipse id="Ellipse_59" data-name="Ellipse 59" cx="2.902" cy="2.902" rx="2.902" ry="2.902" transform="translate(59.342 56.66)" fill="#3f3d56"/>
    <ellipse id="Ellipse_60" data-name="Ellipse 60" cx="1.838" cy="1.838" rx="1.838" ry="1.838" transform="translate(60.406 57.724)" fill="#65617d"/>
    <path id="Path_322" data-name="Path 322" d="M648.5,690.42l1.9,4.3a.37.37,0,0,0,.67.014l2.262-4.608Z" transform="translate(-588.481 -635.405)" fill="#3f3d56"/>
    <rect id="Rectangle_201" data-name="Rectangle 201" width="12.091" height="6.674" transform="translate(39.271 46.842)" fill="#65617d"/>
    <rect id="Rectangle_202" data-name="Rectangle 202" width="3.676" height="0.774" transform="translate(43.527 48.002)" opacity="0.1"/>
    <rect id="Rectangle_203" data-name="Rectangle 203" width="2.757" height="0.58" transform="translate(43.987 48.099)" opacity="0.1"/>
    <rect id="Rectangle_204" data-name="Rectangle 204" width="12.091" height="6.674" transform="translate(51.556 46.842)" fill="#65617d"/>
    <rect id="Rectangle_205" data-name="Rectangle 205" width="3.676" height="0.774" transform="translate(55.812 48.002)" opacity="0.1"/>
    <rect id="Rectangle_206" data-name="Rectangle 206" width="2.757" height="0.58" transform="translate(56.271 48.099)" opacity="0.1"/>
    <rect id="Rectangle_207" data-name="Rectangle 207" width="12.091" height="6.674" transform="translate(39.271 39.974)" fill="#65617d"/>
    <rect id="Rectangle_208" data-name="Rectangle 208" width="3.676" height="0.774" transform="translate(43.527 41.135)" opacity="0.1"/>
    <rect id="Rectangle_209" data-name="Rectangle 209" width="2.757" height="0.58" transform="translate(43.987 41.232)" opacity="0.1"/>
    <rect id="Rectangle_210" data-name="Rectangle 210" width="12.091" height="6.674" transform="translate(51.556 39.974)" fill="#65617d"/>
    <rect id="Rectangle_211" data-name="Rectangle 211" width="3.676" height="0.774" transform="translate(55.812 41.135)" opacity="0.1"/>
    <rect id="Rectangle_212" data-name="Rectangle 212" width="2.757" height="0.58" transform="translate(56.271 41.232)" opacity="0.1"/>
    <rect id="Rectangle_213" data-name="Rectangle 213" width="12.091" height="6.674" transform="translate(39.271 33.01)" fill="#65617d"/>
    <rect id="Rectangle_214" data-name="Rectangle 214" width="3.676" height="0.774" transform="translate(43.527 34.17)" opacity="0.1"/>
    <rect id="Rectangle_215" data-name="Rectangle 215" width="2.757" height="0.58" transform="translate(43.987 34.267)" opacity="0.1"/>
    <rect id="Rectangle_216" data-name="Rectangle 216" width="12.091" height="6.674" transform="translate(51.556 33.01)" fill="#65617d"/>
    <rect id="Rectangle_217" data-name="Rectangle 217" width="3.676" height="0.774" transform="translate(55.812 34.17)" opacity="0.1"/>
    <rect id="Rectangle_218" data-name="Rectangle 218" width="2.757" height="0.58" transform="translate(56.271 34.267)" opacity="0.1"/>
    <rect id="Rectangle_219" data-name="Rectangle 219" width="12.091" height="6.674" transform="translate(51.556 26.045)" fill="#65617d"/>
    <rect id="Rectangle_220" data-name="Rectangle 220" width="3.676" height="0.774" transform="translate(55.812 27.206)" opacity="0.1"/>
    <rect id="Rectangle_221" data-name="Rectangle 221" width="2.757" height="0.58" transform="translate(56.271 27.303)" opacity="0.1"/>
  </g>
</svg>
