<svg xmlns="http://www.w3.org/2000/svg" width="75.468" height="63" viewBox="0 0 75.468 63">
  <g id="SHOPPING_CART" transform="translate(0 0)">
    <path id="Path_271" data-name="Path 271" d="M186.527,742.483a6.844,6.844,0,0,0,3.269,2.775,5.892,5.892,0,0,0-3.791-7.03A6.843,6.843,0,0,0,186.527,742.483Z" transform="translate(-183.02 -682.451)" fill="#2f2e41"/>
    <path id="Path_272" data-name="Path 272" d="M156.226,772.515a6.843,6.843,0,0,1,2.618,3.4A5.892,5.892,0,0,1,152,771.793,6.844,6.844,0,0,1,156.226,772.515Z" transform="translate(-152 -713.121)" fill="#6c63ff"/>
    <rect id="Rectangle_117" data-name="Rectangle 117" width="11.792" height="0.168" transform="translate(34.807 3.024)" fill="#f2f2f2"/>
    <rect id="Rectangle_118" data-name="Rectangle 118" width="0.168" height="1.558" transform="translate(43.23 3.151)" fill="#f2f2f2"/>
    <rect id="Rectangle_119" data-name="Rectangle 119" width="0.168" height="1.558" transform="translate(38.092 3.151)" fill="#f2f2f2"/>
    <rect id="Rectangle_120" data-name="Rectangle 120" width="11.792" height="0.168" transform="translate(40.787 11.11)" fill="#f2f2f2"/>
    <rect id="Rectangle_121" data-name="Rectangle 121" width="0.168" height="1.558" transform="translate(43.988 9.594)" fill="#f2f2f2"/>
    <rect id="Rectangle_122" data-name="Rectangle 122" width="0.168" height="1.558" transform="translate(49.126 9.594)" fill="#f2f2f2"/>
    <rect id="Rectangle_123" data-name="Rectangle 123" width="11.792" height="0.168" transform="translate(56.454 14.901)" fill="#f2f2f2"/>
    <rect id="Rectangle_124" data-name="Rectangle 124" width="0.168" height="1.558" transform="translate(59.654 13.385)" fill="#f2f2f2"/>
    <rect id="Rectangle_125" data-name="Rectangle 125" width="0.168" height="1.558" transform="translate(64.792 13.385)" fill="#f2f2f2"/>
    <rect id="Rectangle_126" data-name="Rectangle 126" width="11.792" height="0.168" transform="translate(55.274 53.982)" fill="#f2f2f2"/>
    <rect id="Rectangle_127" data-name="Rectangle 127" width="0.168" height="1.558" transform="translate(58.475 52.466)" fill="#f2f2f2"/>
    <rect id="Rectangle_128" data-name="Rectangle 128" width="0.168" height="1.558" transform="translate(63.613 52.466)" fill="#f2f2f2"/>
    <rect id="Rectangle_129" data-name="Rectangle 129" width="11.792" height="0.168" transform="translate(35.144 26.945)" fill="#f2f2f2"/>
    <rect id="Rectangle_130" data-name="Rectangle 130" width="0.168" height="1.558" transform="translate(38.345 25.429)" fill="#f2f2f2"/>
    <rect id="Rectangle_131" data-name="Rectangle 131" width="0.168" height="1.558" transform="translate(43.482 25.429)" fill="#f2f2f2"/>
    <rect id="Rectangle_132" data-name="Rectangle 132" width="11.792" height="0.168" transform="translate(38.85 47.244)" fill="#f2f2f2"/>
    <rect id="Rectangle_133" data-name="Rectangle 133" width="0.168" height="1.558" transform="translate(42.051 45.728)" fill="#f2f2f2"/>
    <rect id="Rectangle_134" data-name="Rectangle 134" width="0.168" height="1.558" transform="translate(47.188 45.728)" fill="#f2f2f2"/>
    <rect id="Rectangle_135" data-name="Rectangle 135" width="11.792" height="0.168" transform="translate(57.717 41.095)" fill="#f2f2f2"/>
    <rect id="Rectangle_136" data-name="Rectangle 136" width="0.168" height="1.558" transform="translate(60.918 39.579)" fill="#f2f2f2"/>
    <rect id="Rectangle_137" data-name="Rectangle 137" width="0.168" height="1.558" transform="translate(66.055 39.579)" fill="#f2f2f2"/>
    <path id="Path_273" data-name="Path 273" d="M145.218,604.346H125.274V604.2h19.8v-6.959H126.951l-.88-1.834.129-.062.841,1.753h18.177Z" transform="translate(-114.722 -545.202)" fill="#2f2e41"/>
    <circle id="Ellipse_42" data-name="Ellipse 42" cx="1.507" cy="1.507" r="1.507" transform="translate(11.699 59.646)" fill="#3f3d56"/>
    <circle id="Ellipse_43" data-name="Ellipse 43" cx="1.507" cy="1.507" r="1.507" transform="translate(26.55 59.646)" fill="#3f3d56"/>
    <circle id="Ellipse_44" data-name="Ellipse 44" cx="0.933" cy="0.933" r="0.933" transform="translate(44.628 28.223)" fill="#3f3d56"/>
    <path id="Path_274" data-name="Path 274" d="M242.916,493.386H220.5l-4.851-15.855h32.263l-.029.093Zm-22.311-.143H242.81l4.9-15.568H215.842Z" transform="translate(-210.287 -443.712)" fill="#2f2e41"/>
    <path id="Path_275" data-name="Path 275" d="M106.21,427.076H86.52l-4.26-14.061H110.6l-.026.083Z" transform="translate(-75.331 -378.228)" fill="#f2f2f2"/>
    <path id="Path_276" data-name="Path 276" d="M449.957,345.5l-.139-.037.947-3.569h5.508v.144h-5.4Z" transform="translate(-411.931 -313.097)" fill="#2f2e41"/>
    <rect id="Rectangle_138" data-name="Rectangle 138" width="29.083" height="0.143" transform="translate(6.928 38.626)" fill="#2f2e41"/>
    <rect id="Rectangle_139" data-name="Rectangle 139" width="25.801" height="0.143" transform="translate(8.546 43.912)" fill="#2f2e41"/>
    <rect id="Rectangle_140" data-name="Rectangle 140" width="0.143" height="15.711" transform="translate(21.42 33.891)" fill="#2f2e41"/>
    <rect id="Rectangle_141" data-name="Rectangle 141" width="15.745" height="0.144" transform="matrix(0.065, -0.998, 0.998, 0.065, 26.958, 49.597)" fill="#2f2e41"/>
    <rect id="Rectangle_142" data-name="Rectangle 142" width="0.144" height="15.745" transform="translate(14.856 33.895) rotate(-3.729)" fill="#2f2e41"/>
    <rect id="Rectangle_143" data-name="Rectangle 143" width="75.468" height="0.168" transform="translate(0 62.75)" fill="#2f2e41"/>
    <path id="Path_277" data-name="Path 277" d="M747.411,135.285s1.231,3.5.474,4.044,2.557,4.942,2.557,4.942l3.978-1.078-2.178-3.684s-.284-3.684-.284-4.223S747.411,135.285,747.411,135.285Z" transform="translate(-697.261 -130.073)" fill="#a0616a"/>
    <path id="Path_278" data-name="Path 278" d="M747.411,135.285s1.231,3.5.474,4.044,2.557,4.942,2.557,4.942l3.978-1.078-2.178-3.684s-.284-3.684-.284-4.223S747.411,135.285,747.411,135.285Z" transform="translate(-697.261 -130.073)" opacity="0.1"/>
    <path id="Path_279" data-name="Path 279" d="M721.137,405.65a40.479,40.479,0,0,0,0,6.829c.359,2.336.9,8.806.9,8.806s0,12.221,1.977,12.4,3.415.359,3.594-.359-.9-1.078-.359-1.438.719-1.617,0-3.055,0-15.994,0-15.994L730.662,422s.359,7.548.719,8.626-.359,3.055.9,3.235,2.7-.9,3.414-1.258-1.078-.359-.719-.539,1.438-.719,1.078-.9-.719-8.806-.719-8.806-.988-18.42-2.246-19.139a1.543,1.543,0,0,0-2.067.519Z" transform="translate(-673.054 -375.458)" fill="#2f2e41"/>
    <path id="Path_280" data-name="Path 280" d="M753.463,758.784v1.438s-1.617,3.908,0,3.908,2.875.4,2.875-.134v-4.852Z" transform="translate(-702.145 -701.276)" fill="#2f2e41"/>
    <path id="Path_281" data-name="Path 281" d="M855.9,758.754v1.438s1.617,3.908,0,3.908-2.875.405-2.875-.134v-4.852Z" transform="translate(-793.981 -701.248)" fill="#2f2e41"/>
    <circle id="Ellipse_45" data-name="Ellipse 45" cx="3.235" cy="3.235" r="3.235" transform="translate(49.431 1.348)" fill="#a0616a"/>
    <path id="Path_282" data-name="Path 282" d="M761.639,201.9s.9,2.7,2.336,2.157l1.438-.539,2.516,17.252s-1.977,2.875-4.852,1.078S761.639,201.9,761.639,201.9Z" transform="translate(-709.961 -191.297)" fill="#6c63ff"/>
    <path id="Path_283" data-name="Path 283" d="M795.418,176.937l.809-1.707s4.762,2.246,5.481,2.965a2.807,2.807,0,0,1,.719,1.8l-1.258,4.493s.359,9.884.359,10.244,1.258,2.336.359,1.617-1.078-1.438-1.8-.359a13.181,13.181,0,0,1-2.336,2.336Z" transform="translate(-741.224 -166.873)" fill="#3f3d56"/>
    <path id="Path_284" data-name="Path 284" d="M835.746,349.122l-.539,5.032s-3.235,2.875-2.516,3.055a1,1,0,0,0,1.078-.539s1.258,1.258,1.977.539,2.516-7.548,2.516-7.548Z" transform="translate(-775.262 -326.119)" fill="#a0616a"/>
    <path id="Path_285" data-name="Path 285" d="M737.3,76.025a3.6,3.6,0,0,0-2.089.348,3.058,3.058,0,0,0-.722.707,3.215,3.215,0,0,0-.879,2.6l.254-.1a1.663,1.663,0,0,1-.16.713c.036-.1.156.064.123.169l-.28.918a.864.864,0,0,1,1.1.658c.032-1.066.143-2.289,1.008-2.914a3.485,3.485,0,0,1,1.52-.5,3.057,3.057,0,0,1,1.473.007,1.06,1.06,0,0,1,.763,1.126.5.5,0,0,1,.565.279,1.464,1.464,0,0,1,.116.67c.231.163.493-.161.587-.427a3.856,3.856,0,0,0,.3-1.943,1.482,1.482,0,0,0-1.314-1.278.461.461,0,0,0,.12-.324l-.547-.046a.6.6,0,0,0,.361-.19C739.376,76.748,737.651,76.038,737.3,76.025Z" transform="translate(-684.561 -76.014)" fill="#2f2e41"/>
    <path id="Path_286" data-name="Path 286" d="M696.044,174.423s-1.463-1.434-1.989-1.346-1.245,1.346-1.245,1.346-4.313,1.438-4.133,2.875,2.157,8.447,2.157,8.447,1.617,8.447.18,9.345,6.829,3.235,7.009,2.157.539-11.861,0-13.478S696.044,174.423,696.044,174.423Z" transform="translate(-643.467 -164.899)" fill="#3f3d56"/>
    <path id="Path_287" data-name="Path 287" d="M850.893,223.236h2.222s1.552,6.829,1.732,7.548a19.1,19.1,0,0,1,.359,4.133c-.18,0-3.774-.719-3.774-.18Z" transform="translate(-792.027 -210.836)" fill="#3f3d56"/>
    <path id="Path_288" data-name="Path 288" d="M750.452,304.048h-8.507a23.777,23.777,0,0,1,0-11.034h8.507A14.851,14.851,0,0,0,750.452,304.048Z" transform="translate(-691.661 -274.737)" fill="#f2f2f2"/>
    <path id="Path_289" data-name="Path 289" d="M707.938,350.978l2.516,1.078s4.852.719,4.852-1.258-4.852-.9-4.852-.9l-1.618-.517Z" transform="translate(-661.113 -326.358)" fill="#a0616a"/>
    <path id="Path_290" data-name="Path 290" d="M671.562,210.435l-2.157.539-1.617,9.525s-.539,2.516.359,2.7a20.786,20.786,0,0,1,3.415,1.617s.359-2.7,1.078-2.7l-1.8-1.438,1.078-6.29Z" transform="translate(-624.197 -199.113)" fill="#3f3d56"/>
    <rect id="Rectangle_144" data-name="Rectangle 144" width="11.792" height="0.168" transform="translate(5.075 29.725)" fill="#f2f2f2"/>
    <rect id="Rectangle_145" data-name="Rectangle 145" width="0.168" height="1.558" transform="translate(8.275 28.209)" fill="#f2f2f2"/>
    <rect id="Rectangle_146" data-name="Rectangle 146" width="0.168" height="1.558" transform="translate(13.413 28.209)" fill="#f2f2f2"/>
    <rect id="Rectangle_147" data-name="Rectangle 147" width="11.792" height="0.168" transform="translate(9.202 4.793)" fill="#f2f2f2"/>
    <rect id="Rectangle_148" data-name="Rectangle 148" width="0.168" height="1.558" transform="translate(17.625 4.92)" fill="#f2f2f2"/>
    <rect id="Rectangle_149" data-name="Rectangle 149" width="0.168" height="1.558" transform="translate(12.487 4.92)" fill="#f2f2f2"/>
    <rect id="Rectangle_150" data-name="Rectangle 150" width="11.792" height="0.168" transform="translate(21.078 21.386)" fill="#f2f2f2"/>
    <rect id="Rectangle_151" data-name="Rectangle 151" width="0.168" height="1.558" transform="translate(29.501 21.512)" fill="#f2f2f2"/>
    <rect id="Rectangle_152" data-name="Rectangle 152" width="0.168" height="1.558" transform="translate(24.363 21.512)" fill="#f2f2f2"/>
    <rect id="Rectangle_153" data-name="Rectangle 153" width="11.792" height="0.168" transform="translate(1.032 21.302)" fill="#f2f2f2"/>
    <rect id="Rectangle_154" data-name="Rectangle 154" width="0.168" height="1.558" transform="translate(9.454 21.428)" fill="#f2f2f2"/>
    <rect id="Rectangle_155" data-name="Rectangle 155" width="0.168" height="1.558" transform="translate(4.317 21.428)" fill="#f2f2f2"/>
    <rect id="Rectangle_156" data-name="Rectangle 156" width="11.792" height="0.168" transform="translate(15.182 12.879)" fill="#f2f2f2"/>
    <rect id="Rectangle_157" data-name="Rectangle 157" width="0.168" height="1.558" transform="translate(18.383 11.363)" fill="#f2f2f2"/>
    <rect id="Rectangle_158" data-name="Rectangle 158" width="0.168" height="1.558" transform="translate(23.521 11.363)" fill="#f2f2f2"/>
  </g>
</svg>
