<svg xmlns="http://www.w3.org/2000/svg" width="84.573" height="62.976" viewBox="0 0 84.573 62.976">
  <g id="SIGN_UP" transform="translate(0)">
    <circle id="Ellipse_24" data-name="Ellipse 24" cx="30.199" cy="30.199" r="30.199" transform="translate(2.539)" fill="#f2f2f2"/>
    <path id="Path_167" data-name="Path 167" d="M311.1,228.816l-.625,5.057c.768,1.5,1.581,3.21,2.356,5.052L314.3,231.3l.074.068a15.154,15.154,0,0,0-3.353-2.612Z" transform="translate(-294.845 -217.637)" fill="#6c63ff"/>
    <path id="Path_168" data-name="Path 168" d="M275.236,222.532l.606-4.9A7.983,7.983,0,0,0,272,216.554c-.065,0-.129,0-.193.005C272.063,216.943,273.521,219.206,275.236,222.532Z" transform="translate(-259.741 -206.56)" fill="#6c63ff"/>
    <path id="Path_169" data-name="Path 169" d="M373.305,348.344l.067.091q-.336-1.021-.74-2l-3.8,8.507-.032-.04q.144.628.266,1.244Z" transform="translate(-347.803 -324.482)" fill="#6c63ff"/>
    <path id="Path_170" data-name="Path 170" d="M342.2,262.362l.072.081a23.825,23.825,0,0,0-3.4-4.482l-1.5,7.77q1.078,2.595,1.858,5.066Z" transform="translate(-319.268 -244.154)" fill="#6c63ff"/>
    <path id="Path_171" data-name="Path 171" d="M206.5,301.443a19.891,19.891,0,0,0,.106,4.008l13.245,3.719c-.48-1.42-1-2.763-1.51-3.995l-11.824-3.62Z" transform="translate(-200.392 -283.633)" fill="#6c63ff"/>
    <path id="Path_172" data-name="Path 172" d="M208.564,347.612l-.018-.112,13.439,3.57q-.164-.526-.335-1.041L208.356,346.3l-.017-.112Q208.428,346.886,208.564,347.612Z" transform="translate(-202.112 -324.254)" fill="#6c63ff"/>
    <path id="Path_173" data-name="Path 173" d="M363.233,311.145l.07.087a28.452,28.452,0,0,0-1.712-3.432l-3.007,8.548q.511,1.651.883,3.233Z" transform="translate(-338.525 -289.404)" fill="#6c63ff"/>
    <path id="Path_174" data-name="Path 174" d="M373.108,429.805a23.2,23.2,0,0,1-.533,6.739c1.044-1.494,5.11-7.73,5.109-14.2Z" transform="translate(-351.227 -393.406)" fill="#6c63ff"/>
    <path id="Path_175" data-name="Path 175" d="M229.085,417.935a27.525,27.525,0,0,0,1.877,3.17l-.013-.123,11.709,4.594a34.219,34.219,0,0,0-.513-4.068Z" transform="translate(-220.949 -389.399)" fill="#6c63ff"/>
    <path id="Path_176" data-name="Path 176" d="M230.724,222.679c-1.856-3.6-3.407-5.938-3.43-5.971l.043-.062a5.4,5.4,0,0,0-4.421,2.794Z" transform="translate(-215.348 -206.643)" fill="#6c63ff"/>
    <path id="Path_177" data-name="Path 177" d="M372.348,377.509c.024.127.049.255.072.382a33.993,33.993,0,0,1,.46,3.67l4.532-7.386.064.091a13.478,13.478,0,0,0-.458-3.371q-.176-.647-.382-1.281Z" transform="translate(-351.021 -345.527)" fill="#6c63ff"/>
    <path id="Path_178" data-name="Path 178" d="M218.872,256.328c-.768-1.821-1.572-3.508-2.331-4.992l-7.987-3.313-.01-.11a11.472,11.472,0,0,0-1.4,4.824Z" transform="translate(-201.027 -235.031)" fill="#6c63ff"/>
    <path id="Path_179" data-name="Path 179" d="M262.034,458.308l-11.623-4.56a63.463,63.463,0,0,0,10.983,11.625A22.459,22.459,0,0,0,262.034,458.308Z" transform="translate(-240.311 -421.915)" fill="#6c63ff"/>
    <path id="Path_180" data-name="Path 180" d="M225.7,371.344l0-.007a46.179,46.179,0,0,0-1.208-4.822l-13.472-3.578q.189.983.466,2a16.547,16.547,0,0,0,1.075,2.814Z" transform="translate(-204.548 -339.464)" fill="#6c63ff"/>
    <path id="Path_181" data-name="Path 181" d="M513.483,460.006l-3.707,3.5c-.367,1.646-.83,3.48-1.408,5.393l6-4.933.014.1a15.154,15.154,0,0,0-.916-4.151Z" transform="translate(-474.519 -427.51)" fill="#6c63ff"/>
    <path id="Path_182" data-name="Path 182" d="M524.351,428.872l3.591-3.386a7.983,7.983,0,0,0-2.267-3.279c-.05-.041-.1-.08-.152-.12C525.471,422.544,525.152,425.217,524.351,428.872Z" transform="translate(-489.03 -393.17)" fill="#6c63ff"/>
    <path id="Path_183" data-name="Path 183" d="M472.166,612.373l-.006.113q.393-1,.706-2.012l-8.351,4.13v-.052q-.289.576-.589,1.127Z" transform="translate(-434.168 -564.211)" fill="#6c63ff"/>
    <path id="Path_184" data-name="Path 184" d="M495.489,511.659l0,.108a23.824,23.824,0,0,0,.244-5.618l-6.112,5.027q-.825,2.686-1.8,5.087Z" transform="translate(-455.866 -469.491)" fill="#6c63ff"/>
    <path id="Path_185" data-name="Path 185" d="M408.681,446.116a19.891,19.891,0,0,0-2.475,3.154l7.829,11.312c.536-1.4,1-2.764,1.385-4.04l-6.8-10.33Z" transform="translate(-381.762 -414.986)" fill="#6c63ff"/>
    <path id="Path_186" data-name="Path 186" d="M397.539,482.645l.058-.1,8.074,11.321q.21-.51.406-1.016L398.218,481.5l.058-.1Q397.9,482,397.539,482.645Z" transform="translate(-373.893 -447.021)" fill="#6c63ff"/>
    <path id="Path_187" data-name="Path 187" d="M479.8,572.119l0,.111a28.459,28.459,0,0,0,.87-3.735l-7.768,4.666q-.659,1.6-1.382,3.054Z" transform="translate(-441.06 -526.097)" fill="#6c63ff"/>
    <path id="Path_188" data-name="Path 188" d="M389.827,683.03a23.2,23.2,0,0,1-4.709,4.85c1.757-.485,8.866-2.695,12.989-7.675Z" transform="translate(-362.616 -627.522)" fill="#6c63ff"/>
    <path id="Path_189" data-name="Path 189" d="M370.08,549.9a27.526,27.526,0,0,0-.576,3.639l.069-.1,6.088,11.006a34.218,34.218,0,0,0,2.2-3.461Z" transform="translate(-348.439 -509.211)" fill="#6c63ff"/>
    <path id="Path_190" data-name="Path 190" d="M483.985,418.14c.865-3.955,1.163-6.747,1.167-6.787l.072-.02a5.4,5.4,0,0,0-5.187-.667Z" transform="translate(-448.795 -382.464)" fill="#6c63ff"/>
    <path id="Path_191" data-name="Path 191" d="M440.779,637.1c-.063.114-.125.228-.188.34a33.993,33.993,0,0,1-1.987,3.12l8.2-2.8-.009.111a13.479,13.479,0,0,0,1.8-2.888q.277-.611.523-1.23Z" transform="translate(-411.177 -585.349)" fill="#6c63ff"/>
    <path id="Path_192" data-name="Path 192" d="M440.627,427.724c.57-1.892,1.027-3.7,1.389-5.332l-4.038-7.646.062-.091a11.472,11.472,0,0,0-4.156,2.822Z" transform="translate(-406.893 -386.422)" fill="#6c63ff"/>
    <path id="Path_193" data-name="Path 193" d="M373.8,602l-6.044-10.926a63.463,63.463,0,0,0,1.044,15.958A22.455,22.455,0,0,0,373.8,602Z" transform="translate(-346.709 -546.602)" fill="#6c63ff"/>
    <path id="Path_194" data-name="Path 194" d="M384.28,511.849l.008,0a46.189,46.189,0,0,0,2.145-4.484l-8.093-11.348q-.481.878-.918,1.838a16.548,16.548,0,0,0-.967,2.853Z" transform="translate(-354.75 -460.289)" fill="#6c63ff"/>
    <path id="Path_195" data-name="Path 195" d="M226.625,462.494l.968,5c1.194,1.191,2.5,2.564,3.8,4.076l-.956-7.707.092.042a15.155,15.155,0,0,0-4-1.448Z" transform="translate(-218.633 -429.824)" fill="#6c63ff"/>
    <path id="Path_196" data-name="Path 196" d="M185.435,465.4l-.938-4.846a7.983,7.983,0,0,0-3.983.16c-.062.02-.122.042-.182.065C180.69,461.063,182.776,462.764,185.435,465.4Z" transform="translate(-176.685 -427.934)" fill="#6c63ff"/>
    <path id="Path_197" data-name="Path 197" d="M343.382,546.943l.092.066q-.635-.867-1.322-1.673l-.982,9.265-.043-.028q.331.553.637,1.1Z" transform="translate(-322.675 -505.069)" fill="#6c63ff"/>
    <path id="Path_198" data-name="Path 198" d="M275.488,481.886l.093.055a23.822,23.822,0,0,0-4.615-3.213l.975,7.854q1.827,2.134,3.333,4.243Z" transform="translate(-258.974 -444.595)" fill="#6c63ff"/>
    <path id="Path_199" data-name="Path 199" d="M144.958,564.313a19.894,19.894,0,0,0,1.339,3.779l13.746-.557c-.9-1.2-1.8-2.32-2.671-3.333l-12.364.212Z" transform="translate(-144.567 -522.2)" fill="#6c63ff"/>
    <path id="Path_200" data-name="Path 200" d="M160.674,604.329l-.052-.1,13.884-.759q-.318-.45-.641-.886l-13.8.559-.051-.1Q160.32,603.681,160.674,604.329Z" transform="translate(-158.241 -557.046)" fill="#6c63ff"/>
    <path id="Path_201" data-name="Path 201" d="M322.553,517.189l.093.061a28.453,28.453,0,0,0-2.689-2.734l-.217,9.059q1,1.412,1.839,2.8Z" transform="translate(-303.257 -477.088)" fill="#6c63ff"/>
    <path id="Path_202" data-name="Path 202" d="M370.294,620.58a23.2,23.2,0,0,1,1.576,6.574c.531-1.744,2.47-8.931.471-15.08Z" transform="translate(-349.157 -565.664)" fill="#6c63ff"/>
    <path id="Path_203" data-name="Path 203" d="M201.927,663.069a27.538,27.538,0,0,0,2.765,2.435l-.05-.113,12.556.749a34.211,34.211,0,0,0-1.746-3.711Z" transform="translate(-196.291 -611.383)" fill="#6c63ff"/>
    <path id="Path_204" data-name="Path 204" d="M151.651,469.7c-2.878-2.848-5.076-4.594-5.108-4.619l.022-.072a5.4,5.4,0,0,0-3.34,4.024Z" transform="translate(-142.993 -432.143)" fill="#6c63ff"/>
    <path id="Path_205" data-name="Path 205" d="M349.742,573.58c.062.114.126.228.186.341a33.985,33.985,0,0,1,1.572,3.349l2.027-8.425.089.067a13.477,13.477,0,0,0-1.477-3.064q-.368-.561-.759-1.1Z" transform="translate(-330.497 -522.694)" fill="#6c63ff"/>
    <path id="Path_206" data-name="Path 206" d="M153.344,514.572c-1.293-1.494-2.579-2.85-3.76-4.028l-8.62-.682-.044-.1a11.472,11.472,0,0,0,.159,5.021Z" transform="translate(-140.713 -472.771)" fill="#6c63ff"/>
    <path id="Path_207" data-name="Path 207" d="M245.741,697.59l-12.464-.744a63.461,63.461,0,0,0,14.038,7.661A22.452,22.452,0,0,0,245.741,697.59Z" transform="translate(-224.755 -642.631)" fill="#6c63ff"/>
    <path id="Path_208" data-name="Path 208" d="M184.3,618.612l0-.008a46.182,46.182,0,0,0-2.639-4.212l-13.918.761q.484.876,1.061,1.759a16.545,16.545,0,0,0,1.892,2.344Z" transform="translate(-165.258 -567.768)" fill="#6c63ff"/>
    <path id="Path_209" data-name="Path 209" d="M242.287,758.1s19.519-7.734,43.089,0" transform="translate(-232.935 -695.128)" fill="#2f2e41"/>
    <path id="Path_210" data-name="Path 210" d="M396.289,700.514a6.137,6.137,0,0,0,.077.617s1.68,1.142,1.814-.134a1.692,1.692,0,0,0-.259-1.368l0,0a.517.517,0,0,1-.141-.35v-1.5l-1.478.47.067,1.277A2.6,2.6,0,0,0,396.289,700.514Z" transform="translate(-372.747 -643.472)" fill="#ffb9b9"/>
    <path id="Path_211" data-name="Path 211" d="M396.417,718.028a6.137,6.137,0,0,0,.077.617s1.68,1.142,1.814-.134a1.692,1.692,0,0,0-.259-1.368.4.4,0,0,0-.413-.043c-.269-.12-.564.08-.809.338A2.373,2.373,0,0,0,396.417,718.028Z" transform="translate(-372.874 -660.985)" opacity="0.05"/>
    <path id="Path_212" data-name="Path 212" d="M393.046,718.559s.739-.4.873,1.411.2,1.612.2,1.612.672,1.612-.739,1.411-2.083-.336-2.016-1.142c.041-.486.154-1.192.238-1.675a2.463,2.463,0,0,1,.632-1.279C392.482,718.638,392.777,718.439,393.046,718.559Z" transform="translate(-368.285 -662.31)" fill="#2f2e41"/>
    <path id="Path_213" data-name="Path 213" d="M491.53,706.034l.77.371s2.406.369,1.643-1a5.56,5.56,0,0,1-.5-1.3,8.635,8.635,0,0,1-.266-1.922l-2.036.284a4.486,4.486,0,0,1,.477,3.069C491.575,705.842,491.53,706.034,491.53,706.034Z" transform="translate(-458.876 -647.479)" fill="#ffb9b9"/>
    <path id="Path_214" data-name="Path 214" d="M495.384,724.991l.77.371s2.406.369,1.643-1a5.558,5.558,0,0,1-.5-1.3c-.467.09-.823.763-.823.763-.377,1.309-.716.982-1,.668C495.429,724.8,495.384,724.991,495.384,724.991Z" transform="translate(-462.729 -666.436)" opacity="0.05"/>
    <path id="Path_215" data-name="Path 215" d="M493.446,725.1s.6-1.135,1.266-.656.335,1.164,2.491,1.834.731,2.093-.588,1.984-4.131-.621-4.131-.621-.731-2.093-.392-2.141S492.9,727,493.446,725.1Z" transform="translate(-459.659 -667.582)" fill="#2f2e41"/>
    <path id="Path_216" data-name="Path 216" d="M500.439,753.485c.856.071,1.757-.5,1.693-1.1.409.672-.627,1.434-1.6,1.354-1.319-.109-4.131-.621-4.131-.621s-.034-.1-.085-.253C496.394,752.88,499.14,753.378,500.439,753.485Z" transform="translate(-463.572 -693.057)" fill="#fff" opacity="0.3"/>
    <path id="Path_217" data-name="Path 217" d="M391.369,754.272c.077.6.748.731,2.012.912.643.092.853-.193.891-.53.042.432-.081.915-.891.8-1.411-.2-2.083-.336-2.016-1.142Z" transform="translate(-368.284 -694.77)" fill="#fff" opacity="0.3"/>
    <path id="Path_218" data-name="Path 218" d="M355.8,465.921l-.223,3.345s-.178,3.39,1.2,3.658,0-4.327,0-4.327v-3.033Z" transform="translate(-335.786 -432.643)" fill="#fbbebe"/>
    <path id="Path_219" data-name="Path 219" d="M354.718,337.18l-.178.4s.045,2.81,0,3.033-.624,1.963-.624,2.141-.446,5.353-.535,5.665-.491,1.294-.134,1.427,1.026-.4,1.294,0,.491,0,.491-.134.089-2.676.624-3.39a10.548,10.548,0,0,0,1.115-2.632c.089-.312.223-4.817.268-4.907a10.068,10.068,0,0,0-.178-1.294Z" transform="translate(-333.546 -316.079)" fill="#3f3d56"/>
    <path id="Path_220" data-name="Path 220" d="M372.669,388.534a11.476,11.476,0,0,1-.892,2.5,10.718,10.718,0,0,0-1.606,7.36c.535,3.97,1.472,9.144,1.472,9.144a10.379,10.379,0,0,1-.045,2.319c-.178.491.8,8.3.8,8.3s1.383,1.071,2.141-.268a18.7,18.7,0,0,1,0-3.167,48.27,48.27,0,0,0,0-5.085s.134-12,.848-11.508,2.9,8.832,2.9,8.832.937,3.212.892,3.479.8,3.613.8,3.613.8,4.639,1.115,4.728,2.23.134,2.409-.357l-.535-4.193s-.535-4.773-.8-5.442-.714-10.17-2.007-12.98a37.21,37.21,0,0,0-.847-5.174,3.951,3.951,0,0,1,.049-1.777S373.16,388.891,372.669,388.534Z" transform="translate(-348.955 -362.705)" fill="#2f2e41"/>
    <ellipse id="Ellipse_25" data-name="Ellipse 25" cx="3.747" cy="4.75" rx="3.747" ry="4.75" transform="translate(22.621 7.964)" fill="#2f2e41"/>
    <path id="Path_221" data-name="Path 221" d="M384.656,263.05l-.58,1.249-6.869,2.007s-4.773,1.383-5.263-.848,1.873-2.453,1.873-2.453.892-.624,2.007-1.249a.964.964,0,0,0,.5-.906,1.876,1.876,0,0,0-.03-.318,2.686,2.686,0,0,0-.089-.358,4.1,4.1,0,0,0-.376-.827s2.944-1.16,2.9-.535a1.775,1.775,0,0,0,.071.667,2.626,2.626,0,0,0,.245.541c.05.086.106.175.168.27.08.123.172.253.274.4.58.8,2.5.8,2.5.8C383.5,261.31,384.656,263.05,384.656,263.05Z" transform="translate(-350.594 -244.759)" fill="#fbbebe"/>
    <path id="Path_222" data-name="Path 222" d="M578.473,384.173s3.212,2.364,3.836,2.319,4.282-.268,3.435.58-4.684.312-4.684.312l-3.524-2.23Z" transform="translate(-537.318 -358.746)" fill="#fbbebe"/>
    <path id="Path_223" data-name="Path 223" d="M417.725,259.48a2.544,2.544,0,0,1-2.594.7,4.1,4.1,0,0,0-.376-.827s2.944-1.16,2.9-.535A1.776,1.776,0,0,0,417.725,259.48Z" transform="translate(-389.523 -244.76)" opacity="0.1"/>
    <circle id="Ellipse_26" data-name="Ellipse 26" cx="2.542" cy="2.542" r="2.542" transform="translate(23.803 10.128)" fill="#fbbebe"/>
    <path id="Path_224" data-name="Path 224" d="M371.017,304.579s11.062-2.5,11.107-2.141a4.091,4.091,0,0,0,.491,1.071l-2.587,2.944s.312,1.427-.312,1.74-.714,2.676-1.294,2.721-7.36-.045-7.4-.4.178-.58,0-.669-.446-.089-.223-.535a9.9,9.9,0,0,0,.223-2.319l-2.1-.981s-.288-.831.235-.973S371.017,304.579,371.017,304.579Z" transform="translate(-347.838 -284.505)" fill="#3f3d56"/>
    <path id="Path_225" data-name="Path 225" d="M489,313.441h.4a5.114,5.114,0,0,1,1.517,1.517,8.293,8.293,0,0,0,1.7,1.918c.268.268,3.925,2.81,3.881,3.167s-1.071.714-1.115,1.115.446.58.134.58a20.844,20.844,0,0,1-2.944-1.517,11.442,11.442,0,0,1-2.364-1.873c-.178-.312-1.383-.848-1.517-1.071a16.807,16.807,0,0,0-2.23-1.249Z" transform="translate(-454.623 -294.526)" fill="#3f3d56"/>
    <circle id="Ellipse_27" data-name="Ellipse 27" cx="1.427" cy="1.427" r="1.427" transform="translate(21.194 8.41)" fill="#2f2e41"/>
    <circle id="Ellipse_28" data-name="Ellipse 28" cx="1.427" cy="1.427" r="1.427" transform="translate(27.483 6.537)" fill="#2f2e41"/>
    <ellipse id="Ellipse_29" data-name="Ellipse 29" cx="2.654" cy="1.628" rx="2.654" ry="1.628" transform="translate(24.049 9.392)" fill="#2f2e41"/>
    <path id="Path_226" data-name="Path 226" d="M422.561,273.758a6.707,6.707,0,0,1-2.75.512,1.872,1.872,0,0,1,.03.318c.065,0,.135,0,.21,0a7.21,7.21,0,0,0,2.678-.564Z" transform="translate(-394.115 -258.497)" fill="#2f2e41"/>
    <rect id="Rectangle_71" data-name="Rectangle 71" width="38.762" height="23.202" rx="11.601" transform="translate(45.812 28.542)" fill="#3f3d56"/>
    <rect id="Rectangle_72" data-name="Rectangle 72" width="30.383" height="1.105" transform="translate(49.991 44.815)" fill="#6c63ff" opacity="0.3"/>
    <rect id="Rectangle_73" data-name="Rectangle 73" width="30.383" height="1.105" transform="translate(50.011 41.915)" fill="#6c63ff" opacity="0.3"/>
    <rect id="Rectangle_74" data-name="Rectangle 74" width="5.432" height="1.105" transform="translate(74.962 37.956)" fill="#6c63ff" opacity="0.3"/>
    <rect id="Rectangle_75" data-name="Rectangle 75" width="19.887" height="1.105" transform="translate(60.507 35.01)" fill="#6c63ff" opacity="0.3"/>
    <rect id="Rectangle_76" data-name="Rectangle 76" width="15.211" height="1.105" transform="translate(49.991 47.761)" fill="#6c63ff" opacity="0.3"/>
    <rect id="Rectangle_77" data-name="Rectangle 77" width="7.642" height="7.642" rx="3.821" transform="translate(50.011 31.419)" fill="#6c63ff"/>
  </g>
</svg>
