<svg id="SIGN_IN" xmlns="http://www.w3.org/2000/svg" xmlns:xlink="http://www.w3.org/1999/xlink" width="90.764" height="62.657" viewBox="0 0 90.764 62.657">
  <defs>
    <linearGradient id="linear-gradient" y1="0.5" x2="1" y2="0.5" gradientUnits="objectBoundingBox">
      <stop offset="0" stop-color="gray" stop-opacity="0.251"/>
      <stop offset="0.54" stop-color="gray" stop-opacity="0.122"/>
      <stop offset="1" stop-color="gray" stop-opacity="0.102"/>
    </linearGradient>
  </defs>
  <path id="Path_94" data-name="Path 94" d="M56.776,23.791C50.958,23.8,45.359,22.15,40,20.317s-10.671-3.884-16.381-4.753c-3.672-.559-7.848-.507-10.718,1.522-2.763,1.952-3.563,5.183-3.949,8.168-.29,2.245-.424,4.6.663,6.656.755,1.426,2.047,2.6,2.958,3.96,3.179,4.727,1.267,10.766-1.822,15.6a58.652,58.652,0,0,0-4.24,6.844c-1.1,2.4-1.544,5.12-.427,7.489,1.107,2.347,3.607,4.051,6.289,5.215,5.448,2.368,11.791,2.875,17.964,3.07,13.664.434,27.354-.451,41.008-1.335a122.159,122.159,0,0,0,15.077-1.6c2.747-.525,5.577-1.305,7.525-3.014a6.219,6.219,0,0,0,1.179-8.259c-3.017-4.271-10.974-5.077-13.138-9.7-1.193-2.544-.164-5.462,1.351-7.915,3.25-5.262,8.845-9.976,8.939-15.861.065-4.042-2.845-7.985-7.19-9.741-4.555-1.84-10.765-1.367-13.956,2.063C67.852,22.259,61.913,23.786,56.776,23.791Z" transform="translate(-5.438 -15.26)" fill="#6c63ff" opacity="0.1"/>
  <path id="Path_95" data-name="Path 95" d="M318.635,221.711a2.115,2.115,0,0,0-1.9-.182s.292.562,1.492.509Z" transform="translate(-241.386 -171.481)" fill="#6c63ff"/>
  <path id="Path_96" data-name="Path 96" d="M323.116,222.924a2.115,2.115,0,0,1-.439,1.862s-.439-.457,0-1.576Z" transform="translate(-245.745 -172.662)" fill="#6c63ff"/>
  <path id="Path_97" data-name="Path 97" d="M323.127,216.357s-.071-.943-2.2-.63a1.015,1.015,0,0,0,.737.9A1.229,1.229,0,0,0,323.127,216.357Z" transform="translate(-244.567 -167.159)" fill="#6c63ff"/>
  <path id="Path_98" data-name="Path 98" d="M328.613,218.5s.9.289.1,2.285a1.018,1.018,0,0,1-.7-.927A1.22,1.22,0,0,1,328.613,218.5Z" transform="translate(-249.92 -169.31)" fill="#6c63ff"/>
  <path id="Path_99" data-name="Path 99" d="M329.093,208.582s.122-1.551-2.053-1.392c0,0-.156,1.4,1.669,1.765Z" transform="translate(-249.197 -160.727)" fill="#6c63ff"/>
  <path id="Path_100" data-name="Path 100" d="M333.729,201.572s-.3-1.758-2.473-1.234c0,0-.008,1.52,2.118,1.653Z" transform="translate(-252.396 -155.468)" fill="#6c63ff"/>
  <path id="Path_101" data-name="Path 101" d="M337.5,194.206a2.027,2.027,0,0,0-2.654-1.2,2.489,2.489,0,0,0,2.511,1.516Z" transform="translate(-255.118 -149.912)" fill="#6c63ff"/>
  <path id="Path_102" data-name="Path 102" d="M341.892,186.747a1.955,1.955,0,0,0-2.568-1.245,2.537,2.537,0,0,0,2.431,1.546Z" transform="translate(-258.511 -144.222)" fill="#6c63ff"/>
  <path id="Path_103" data-name="Path 103" d="M345.343,178.5s-.375-2.173-2.315-1.692c0,0,.564,1.977,2.172,2.009Z" transform="translate(-261.319 -137.656)" fill="#6c63ff"/>
  <path id="Path_104" data-name="Path 104" d="M347.528,170.4s-.451-2.19-2.413-1.557c0,0,.769,2.07,2.273,1.856Z" transform="translate(-262.901 -131.583)" fill="#6c63ff"/>
  <path id="Path_105" data-name="Path 105" d="M349.624,161.154s-.715-2.191-2.232-2.132c0,0,.731,2.314,2.105,2.568Z" transform="translate(-264.626 -124.226)" fill="#6c63ff"/>
  <path id="Path_106" data-name="Path 106" d="M351.3,152.563s-.778-2.637-2.013-2.434a5.23,5.23,0,0,0,1.969,2.845Z" transform="translate(-266.064 -117.477)" fill="#6c63ff"/>
  <path id="Path_107" data-name="Path 107" d="M352.071,143.979s-.73-2.2-1.946-2.285c0,0,.5,2.162,1.922,2.856Z" transform="translate(-266.698 -111.092)" fill="#6c63ff"/>
  <path id="Path_108" data-name="Path 108" d="M353.41,135.615s-.91-2.2-1.712-2.249c0,0,.4,2.166,1.634,2.61Z" transform="translate(-267.89 -104.779)" fill="#6c63ff"/>
  <path id="Path_109" data-name="Path 109" d="M354.917,126.672s-.56-2.389-1.364-2.587a4.058,4.058,0,0,0,1.283,2.766Z" transform="translate(-269.296 -97.745)" fill="#6c63ff"/>
  <path id="Path_110" data-name="Path 110" d="M356.559,117.572s-.588-1.9-1.24-2.195c0,0,.128,2.245,1.09,2.66Z" transform="translate(-270.634 -91.145)" fill="#6c63ff"/>
  <path id="Path_111" data-name="Path 111" d="M359.946,107.178l.118-3.358s-1.218,2.531-.206,3.947Z" transform="translate(-273.771 -82.385)" fill="#6c63ff"/>
  <path id="Path_112" data-name="Path 112" d="M363.88,95.788a18.4,18.4,0,0,1,1.09-2.589,5.023,5.023,0,0,0-1.552,3.637Z" transform="translate(-276.765 -74.335)" fill="#6c63ff"/>
  <path id="Path_113" data-name="Path 113" d="M334.673,212.915s1.543-.2,1.5,1.978c0,0-1.394.227-1.849-1.576Z" transform="translate(-254.719 -165.071)" fill="#6c63ff"/>
  <path id="Path_114" data-name="Path 114" d="M340.661,205.5s1.782-.005,1.634,2.226c0,0-1.5.268-1.99-1.8Z" transform="translate(-259.254 -159.454)" fill="#6c63ff"/>
  <path id="Path_115" data-name="Path 115" d="M345.436,198.406a2.022,2.022,0,0,1,2.653,1.2,2.49,2.49,0,0,1-2.8-.883Z" transform="translate(-263.035 -153.968)" fill="#6c63ff"/>
  <path id="Path_116" data-name="Path 116" d="M349.655,190.5a1.953,1.953,0,0,1,2.63,1.106,2.537,2.537,0,0,1-2.767-.8Z" transform="translate(-266.237 -147.954)" fill="#6c63ff"/>
  <path id="Path_117" data-name="Path 117" d="M352.276,182.11s1.595-1.523,2.867.017c0,0-1.629,1.254-2.94.322Z" transform="translate(-268.273 -141.217)" fill="#6c63ff"/>
  <path id="Path_118" data-name="Path 118" d="M354.531,173.318s1.6-1.557,2.866.072c0,0-1.8,1.279-2.924.255Z" transform="translate(-269.993 -134.553)" fill="#6c63ff"/>
  <path id="Path_119" data-name="Path 119" d="M355.949,162.645s1.236-1.946,2.691-1.511c0,0-1.283,2.06-2.677,1.968Z" transform="translate(-271.112 -125.779)" fill="#6c63ff"/>
  <path id="Path_120" data-name="Path 120" d="M357.354,153.675s1.245-2.45,2.424-2.024a5.231,5.231,0,0,1-2.456,2.437Z" transform="translate(-272.153 -118.601)" fill="#6c63ff"/>
  <path id="Path_121" data-name="Path 121" d="M357.421,145.244s1.28-1.929,2.48-1.693c0,0-1.047,1.956-2.6,2.251Z" transform="translate(-272.133 -112.485)" fill="#6c63ff"/>
  <path id="Path_122" data-name="Path 122" d="M358.222,135.657s.992-2.164,1.8-2.179c0,0-.476,2.149-1.732,2.547Z" transform="translate(-272.835 -104.865)" fill="#6c63ff"/>
  <path id="Path_123" data-name="Path 123" d="M359.026,127.7s1.1-2.192,1.932-2.2a4.057,4.057,0,0,1-1.9,2.389Z" transform="translate(-273.445 -98.823)" fill="#6c63ff"/>
  <path id="Path_124" data-name="Path 124" d="M359.711,118.689s.825-1.813,1.508-2.019c0,0-.413,2.21-1.417,2.5Z" transform="translate(-273.964 -92.125)" fill="#6c63ff"/>
  <path id="Path_125" data-name="Path 125" d="M361.042,108.623l1.844-2.809s-.472,2.771-2.113,3.347Z" transform="translate(-274.768 -83.896)" fill="#6c63ff"/>
  <path id="Path_126" data-name="Path 126" d="M364.318,99.451a18.552,18.552,0,0,0,2.221-1.718,5.011,5.011,0,0,1-3.113,2.437Z" transform="translate(-276.779 -77.771)" fill="#6c63ff"/>
  <path id="Path_127" data-name="Path 127" d="M367.459,94.681s2.46-2.365,3.088-2.363a4.016,4.016,0,0,0-3.147,2.237Z" transform="translate(-279.792 -73.667)" fill="#6c63ff"/>
  <path id="Path_128" data-name="Path 128" d="M359.811,107.372l.09.012c.462-3.618,1.136-5.759,1.9-6.022l-.03-.086C360.961,101.557,360.283,103.665,359.811,107.372Z" transform="translate(-274.039 -80.457)" fill="#444053"/>
  <path id="Path_129" data-name="Path 129" d="M357,134.274l.135.011c.029-.338.051-.683.065-1.028.129-2.995.329-5.745.592-7.807l-.078-.1c-.264,2.066-.521,4.9-.65,7.9C357.051,133.594,357.029,133.938,357,134.274Z" transform="translate(-271.909 -98.706)" fill="#444053"/>
  <path id="Path_130" data-name="Path 130" d="M313.939,177.791a17.629,17.629,0,0,0,4.882-3.614,19.63,19.63,0,0,0,3.568-5.059,22.918,22.918,0,0,0,2.075-7.973l-.141.066a20.817,20.817,0,0,1-5.626,12.83,17.445,17.445,0,0,1-4.831,3.58Z" transform="translate(-239.215 -125.836)" fill="#444053"/>
  <path id="Path_131" data-name="Path 131" d="M103.386,42.668H28.6a.666.666,0,0,0-.666.666v1.941h76.118V43.335A.666.666,0,0,0,103.386,42.668Z" transform="translate(-22.489 -36.034)" fill="#3f3d56"/>
  <path id="Path_132" data-name="Path 132" d="M27.934,53.441V97.122a1.343,1.343,0,0,0,1.343,1.343h73.432a1.343,1.343,0,0,0,1.343-1.343V53.441Z" transform="translate(-22.489 -44.199)" fill="#fff"/>
  <circle id="Ellipse_19" data-name="Ellipse 19" cx="0.311" cy="0.311" r="0.311" transform="translate(6.339 7.607)" fill="#fa5959" opacity="0.8"/>
  <circle id="Ellipse_20" data-name="Ellipse 20" cx="0.311" cy="0.311" r="0.311" transform="translate(7.195 7.607)" fill="#fed253" opacity="0.8"/>
  <circle id="Ellipse_21" data-name="Ellipse 21" cx="0.311" cy="0.311" r="0.311" transform="translate(8.052 7.607)" fill="#8ccf4d" opacity="0.8"/>
  <rect id="Rectangle_67" data-name="Rectangle 67" width="61.175" height="26.9" transform="translate(12.521 16.525)" opacity="0.05"/>
  <rect id="Rectangle_68" data-name="Rectangle 68" width="60.241" height="26.307" transform="translate(12.988 16.729)" fill="#3f3d56"/>
  <path id="Path_133" data-name="Path 133" d="M108.18,112.348a5.993,5.993,0,1,0,5.993,5.993,5.993,5.993,0,0,0-5.993-5.993Zm1.075,6.137v2.838h-2.119v-2.838a1.755,1.755,0,1,1,2.119,0Z" transform="translate(-78.77 -88.849)" fill="#6c63ff"/>
  <path id="Path_134" data-name="Path 134" d="M108.18,112.348a5.993,5.993,0,1,0,5.993,5.993,5.993,5.993,0,0,0-5.993-5.993Zm1.075,6.137v2.838h-2.119v-2.838a1.755,1.755,0,1,1,2.119,0Z" transform="translate(-78.77 -88.849)" opacity="0.05"/>
  <path id="Path_135" data-name="Path 135" d="M102.817,105.274a7.705,7.705,0,1,0,7.705,7.705,7.705,7.705,0,0,0-7.705-7.705Zm1.381,7.89v3.648h-2.724v-3.648a2.257,2.257,0,1,1,2.724,0Z" transform="translate(-73.408 -83.487)" fill="#6c63ff"/>
  <rect id="Rectangle_69" data-name="Rectangle 69" width="24.906" height="2.646" transform="translate(40.306 28.481)" fill="#fff"/>
  <rect id="Rectangle_70" data-name="Rectangle 70" width="5.37" height="2.646" transform="translate(59.842 33.306)" fill="#6c63ff"/>
  <path id="Path_136" data-name="Path 136" d="M178.561,136.528h-.451l.4-.4a.04.04,0,0,0,0-.055.039.039,0,0,0-.055,0l-.4.4v-.451a.039.039,0,0,0-.039-.039.04.04,0,0,0-.039.039v.451l-.4-.4a.039.039,0,0,0-.055,0,.04.04,0,0,0,0,.055l.4.4h-.451a.04.04,0,0,0-.039.039.039.039,0,0,0,.039.039h.451l-.4.4a.04.04,0,0,0,0,.055.04.04,0,0,0,.055,0l.4-.4v.451a.039.039,0,0,0,.078,0v-.451l.4.4a.04.04,0,0,0,.055,0,.04.04,0,0,0,0-.055l-.4-.4h.451a.038.038,0,1,0,0-.075Z" transform="translate(-135.803 -106.763)" fill="#6c63ff"/>
  <path id="Path_137" data-name="Path 137" d="M185.314,136.528h-.451l.4-.4a.04.04,0,0,0,0-.055.039.039,0,0,0-.055,0l-.4.4v-.451a.039.039,0,0,0-.039-.039.04.04,0,0,0-.039.039v.451l-.4-.4a.039.039,0,0,0-.055,0,.04.04,0,0,0,0,.055l.4.4h-.451a.04.04,0,0,0-.039.039.039.039,0,0,0,.039.039h.451l-.4.4a.04.04,0,0,0,0,.055.04.04,0,0,0,.055,0l.4-.4v.451a.039.039,0,1,0,.078,0v-.451l.4.4a.04.04,0,0,0,.055,0,.04.04,0,0,0,0-.055l-.4-.4h.451a.038.038,0,1,0,0-.075Z" transform="translate(-140.922 -106.763)" fill="#6c63ff"/>
  <path id="Path_138" data-name="Path 138" d="M192.067,136.528h-.451l.4-.4a.04.04,0,0,0,0-.055.039.039,0,0,0-.055,0l-.4.4v-.451a.039.039,0,0,0-.039-.039.04.04,0,0,0-.039.039v.451l-.4-.4a.039.039,0,0,0-.055,0,.04.04,0,0,0,0,.055l.4.4h-.451a.04.04,0,0,0-.039.039.039.039,0,0,0,.039.039h.451l-.4.4a.04.04,0,0,0,0,.055.04.04,0,0,0,.055,0l.4-.4v.451a.039.039,0,0,0,.078,0v-.451l.4.4a.04.04,0,0,0,.055,0,.04.04,0,0,0,0-.055l-.4-.4h.451a.038.038,0,1,0,0-.075Z" transform="translate(-146.04 -106.763)" fill="#6c63ff"/>
  <path id="Path_139" data-name="Path 139" d="M198.82,136.528h-.451l.4-.4a.04.04,0,0,0,0-.055.039.039,0,0,0-.055,0l-.4.4v-.451a.039.039,0,0,0-.039-.039.04.04,0,0,0-.039.039v.451l-.4-.4a.039.039,0,0,0-.055,0,.04.04,0,0,0,0,.055l.4.4h-.451a.04.04,0,0,0-.039.039.039.039,0,0,0,.039.039h.451l-.4.4a.04.04,0,0,0,0,.055.04.04,0,0,0,.055,0l.4-.4v.451a.039.039,0,1,0,.078,0v-.451l.4.4a.04.04,0,0,0,.055,0,.04.04,0,0,0,0-.055l-.4-.4h.451a.038.038,0,1,0,0-.075Z" transform="translate(-151.159 -106.763)" fill="#6c63ff"/>
  <path id="Path_140" data-name="Path 140" d="M205.573,136.528h-.451l.4-.4a.04.04,0,0,0,0-.055.039.039,0,0,0-.055,0l-.4.4v-.451a.039.039,0,0,0-.039-.039.04.04,0,0,0-.039.039v.451l-.4-.4a.039.039,0,0,0-.055,0,.04.04,0,0,0,0,.055l.4.4h-.451a.04.04,0,0,0-.039.039.039.039,0,0,0,.039.039h.451l-.4.4a.04.04,0,0,0,0,.055.04.04,0,0,0,.055,0l.4-.4v.451a.039.039,0,0,0,.078,0v-.451l.4.4a.04.04,0,0,0,.055,0,.04.04,0,0,0,0-.055l-.4-.4h.451a.038.038,0,1,0,0-.075Z" transform="translate(-156.277 -106.763)" fill="#6c63ff"/>
  <path id="Path_141" data-name="Path 141" d="M212.325,136.528h-.451l.4-.4a.04.04,0,0,0,0-.055.039.039,0,0,0-.055,0l-.4.4v-.451a.039.039,0,0,0-.039-.039.04.04,0,0,0-.039.039v.451l-.4-.4a.039.039,0,0,0-.055,0,.04.04,0,0,0,0,.055l.4.4h-.451a.04.04,0,0,0-.039.039.039.039,0,0,0,.039.039h.451l-.4.4a.04.04,0,0,0,0,.055.04.04,0,0,0,.055,0l.4-.4v.451a.039.039,0,0,0,.078,0v-.451l.4.4a.04.04,0,0,0,.055,0,.04.04,0,0,0,0-.055l-.4-.4h.451a.038.038,0,1,0,0-.075Z" transform="translate(-161.395 -106.763)" fill="#6c63ff"/>
  <path id="Path_142" data-name="Path 142" d="M219.078,136.528h-.451l.4-.4a.04.04,0,0,0,0-.055.039.039,0,0,0-.055,0l-.4.4v-.451a.039.039,0,0,0-.039-.039.04.04,0,0,0-.039.039v.451l-.4-.4a.039.039,0,0,0-.055,0,.04.04,0,0,0,0,.055l.4.4h-.451a.04.04,0,0,0-.039.039.039.039,0,0,0,.039.039h.451l-.4.4a.04.04,0,0,0,0,.055.04.04,0,0,0,.055,0l.4-.4v.451a.039.039,0,0,0,.078,0v-.451l.4.4a.04.04,0,0,0,.055,0,.04.04,0,0,0,0-.055l-.4-.4h.451a.038.038,0,1,0,0-.075Z" transform="translate(-166.514 -106.763)" fill="#6c63ff"/>
  <path id="Path_143" data-name="Path 143" d="M225.831,136.528h-.451l.4-.4a.04.04,0,0,0,0-.055.039.039,0,0,0-.055,0l-.4.4v-.451a.039.039,0,0,0-.039-.039.04.04,0,0,0-.039.039v.451l-.4-.4a.039.039,0,0,0-.055,0,.04.04,0,0,0,0,.055l.4.4h-.451a.04.04,0,0,0-.039.039.039.039,0,0,0,.039.039h.451l-.4.4a.04.04,0,0,0,0,.055.04.04,0,0,0,.055,0l.4-.4v.451a.039.039,0,0,0,.078,0v-.451l.4.4a.04.04,0,0,0,.055,0,.04.04,0,0,0,0-.055l-.4-.4h.451a.038.038,0,1,0,0-.075Z" transform="translate(-171.632 -106.763)" fill="#6c63ff"/>
  <path id="Path_144" data-name="Path 144" d="M232.584,136.528h-.451l.4-.4a.04.04,0,0,0,0-.055.039.039,0,0,0-.055,0l-.4.4v-.451a.039.039,0,0,0-.039-.039.04.04,0,0,0-.039.039v.451l-.4-.4a.039.039,0,0,0-.055,0,.04.04,0,0,0,0,.055l.4.4h-.451a.04.04,0,0,0-.039.039.039.039,0,0,0,.039.039h.451l-.4.4a.04.04,0,0,0,0,.055.04.04,0,0,0,.055,0l.4-.4v.451a.039.039,0,1,0,.078,0v-.451l.4.4a.04.04,0,0,0,.055,0,.04.04,0,0,0,0-.055l-.4-.4h.451a.038.038,0,1,0,0-.075Z" transform="translate(-176.751 -106.763)" fill="#6c63ff"/>
  <path id="Path_145" data-name="Path 145" d="M239.337,136.528h-.451l.4-.4a.04.04,0,0,0,0-.055.039.039,0,0,0-.055,0l-.4.4v-.451a.039.039,0,0,0-.039-.039.04.04,0,0,0-.039.039v.451l-.4-.4a.039.039,0,0,0-.055,0,.04.04,0,0,0,0,.055l.4.4h-.451a.04.04,0,0,0-.039.039.039.039,0,0,0,.039.039h.451l-.4.4a.04.04,0,0,0,0,.055.04.04,0,0,0,.055,0l.4-.4v.451a.039.039,0,0,0,.078,0v-.451l.4.4a.04.04,0,0,0,.055,0,.04.04,0,0,0,0-.055l-.4-.4h.451a.038.038,0,1,0,0-.075Z" transform="translate(-181.869 -106.763)" fill="#6c63ff"/>
  <path id="Path_146" data-name="Path 146" d="M246.09,136.528h-.451l.4-.4a.04.04,0,0,0,0-.055.039.039,0,0,0-.055,0l-.4.4v-.451a.039.039,0,0,0-.039-.039.04.04,0,0,0-.039.039v.451l-.4-.4a.039.039,0,0,0-.055,0,.04.04,0,0,0,0,.055l.4.4H245a.04.04,0,0,0-.039.039.039.039,0,0,0,.039.039h.451l-.4.4a.04.04,0,0,0,0,.055.04.04,0,0,0,.055,0l.4-.4v.451a.039.039,0,1,0,.078,0v-.451l.4.4a.04.04,0,0,0,.055,0,.04.04,0,0,0,0-.055l-.4-.4h.451a.038.038,0,1,0,0-.075Z" transform="translate(-186.987 -106.763)" fill="#6c63ff"/>
  <path id="Path_147" data-name="Path 147" d="M264.387,156.836a1.4,1.4,0,0,0-.035-.279.907.907,0,0,0-.488-.661,4.1,4.1,0,0,1-.774-.327,12.829,12.829,0,0,0-.064-2.5,6.345,6.345,0,0,1-.241-.882,3.9,3.9,0,0,0-.09-1.125,1.111,1.111,0,0,0-.658-.568,3.505,3.505,0,0,0-.877-.156c-.374-.03-1.583-.174-2,.16h0a.44.44,0,0,0-.078.078h0a.309.309,0,0,0-.025.04l0,.006a.31.31,0,0,0-.021.051h0a.394.394,0,0,0-.013.058v.14c.005.07.016.14.016.209a.452.452,0,0,1-.009.1.719.719,0,0,1-.129.252h0l-.014.02c-.009.012-.017.024-.025.037l-.02.033c-.006.011-.012.018-.018.028a.379.379,0,0,0-.02.04c0,.008-.009.015-.012.023a.385.385,0,0,0-.023.065.435.435,0,0,0,0,.207.771.771,0,0,0,.107.245c.019.032.04.063.062.094l.055.074a1.675,1.675,0,0,0-.016.218,1.61,1.61,0,0,0,.615,1.265,4.769,4.769,0,0,1-.01.988c-.007.068-.016.138-.025.206s-.016.114-.026.17a.79.79,0,0,1-.34-.026,1.6,1.6,0,0,0-.156-.06c-.227-.057-.458.169-.682.1a.091.091,0,0,1-.01.031.3.3,0,0,0-.156-.046.568.568,0,0,1-.338-.194l-.3-.279a.328.328,0,0,1-.051-.058.4.4,0,0,1-.036-.1,1.1,1.1,0,0,0-.287-.412.194.194,0,0,0-.085-.061.132.132,0,0,0-.039,0,.349.349,0,0,0-.026-.031.742.742,0,0,0-.065-.065c-.142-.131-.156-.243-.279-.389a3.745,3.745,0,0,1-.291-.44c-.01-.082-.024-.166-.041-.251a3.224,3.224,0,0,0-.17-.568l-.156-.345-.018.018c-.113-.168-.233-.26-.342-.238-.181.037-.271.389-.242.849l.062.467a.145.145,0,0,0,.009.035.864.864,0,0,0-.017.168c0,.065.061.114.093.172a.486.486,0,0,1,.078.265c0,.033-.014.065-.016.1a.377.377,0,0,0,.073.2l.389.654.078.137,0,.006a.332.332,0,0,0,.1.12,1.425,1.425,0,0,0,.128.472c.013.03.028.058.044.086a2.753,2.753,0,0,0,.367.477l.185.208c.183.2.366.409.564.6a.756.756,0,0,0,.252.177.286.286,0,0,0,.283-.041v.29a.163.163,0,0,1,.123.256,6.418,6.418,0,0,1-.576,1.219,2.593,2.593,0,0,1,.483.368,2.171,2.171,0,0,1,.251.34c.007.058.012.114.016.171a6.974,6.974,0,0,1-.623,2.733,2.128,2.128,0,0,0-.186.774,1.519,1.519,0,0,0-.174.125,1.155,1.155,0,0,1,.032.493.874.874,0,0,1-.065.311,2.185,2.185,0,0,1-.112.2,2.969,2.969,0,0,0-.286,1.185c-.024.245.071.545-.04.764a3.126,3.126,0,0,0-.389,1.2,1.2,1.2,0,0,1-.036.279c-.024.078-.067.144-.089.22a.942.942,0,0,0-.016.311,2.98,2.98,0,0,1-.163,1.1,1.493,1.493,0,0,0-.128.861,1.213,1.213,0,0,0-.329.723,1.141,1.141,0,0,1-.025.206,1,1,0,0,1-.093.2,1.737,1.737,0,0,0-.212.934,2.6,2.6,0,0,0-.419,1.1c-.069.388-.1.784-.188,1.167a10.882,10.882,0,0,0-.374,1.54,1.085,1.085,0,0,0-.409.768,3.418,3.418,0,0,1-.18.877c-.064.142-.156.269-.216.413a1.9,1.9,0,0,0-.093.356,1.388,1.388,0,0,0-.024.584.88.88,0,0,1-.228.174c.012-.048.023-.1.031-.146-.2.182-.565.118-.725.337a.328.328,0,0,0,.078.451.623.623,0,0,0,.161.069,2.574,2.574,0,0,0,1.189.184.355.355,0,0,0,.135-.043.433.433,0,0,0,.125-.145l.179-.285a3.7,3.7,0,0,0,.437.1c.015.125.026.249.031.374.078.016.182.02.219-.052a.189.189,0,0,0,.013-.086c0-.055.008-.128.012-.2h.016a1.479,1.479,0,0,0,.689-.139,4.455,4.455,0,0,1,.43-2.016c.251-.686.467-1.385.684-2.084.156-.492.328-.968.48-1.461q.288-.934.578-1.868c.084-.274.169-.545.265-.817a12.734,12.734,0,0,1,.721-1.606c.078-.147.156-.293.219-.445.078-.186.133-.381.2-.573a8.874,8.874,0,0,1,.489-1.15c.005-.01.009-.019.015-.029.063.258.126.519.168.778a2.957,2.957,0,0,1,.013.962,3.174,3.174,0,0,0-.1.652,4.025,4.025,0,0,0,.255.874,3.327,3.327,0,0,1,.087.669c.022.35.212.743.078,1.068-.416,1.028-.215,2.189-.452,3.269a6.527,6.527,0,0,0-.467,1.641q.031.6.106,1.2a1.144,1.144,0,0,0,.1.365,1.341,1.341,0,0,0,.107.174c-.034.013-.063.048-.088.122a.48.48,0,0,0,.173.545.757.757,0,0,0,.225.078,1.184,1.184,0,0,0,.325.045.764.764,0,0,0,.1-.012,3.712,3.712,0,0,0,.368.132.8.8,0,0,0,.01.1.119.119,0,0,0,.04.088.122.122,0,0,0,.062.011h.423v-.106a.348.348,0,0,0,.268-.087.416.416,0,0,0,.078-.162q.173-.586.343-1.173a3.75,3.75,0,0,0,.167-1.339c-.15-1.434.18-2.874.072-4.312a10.328,10.328,0,0,1,.132-2.587c.035-.193.078-.389.093-.581.034-.363-.008-.729.018-1.09.009-.126.026-.251.041-.377a18.083,18.083,0,0,0,.167-2.347,7.4,7.4,0,0,0-.048-.778.444.444,0,0,0,.212-.125.529.529,0,0,0,.051-.332,2.409,2.409,0,0,1,.209-.8,9.455,9.455,0,0,0,.294-1.094,3.819,3.819,0,0,0,.131-.915.929.929,0,0,0,0-.093.241.241,0,0,0,.072-.078.451.451,0,0,0,.037-.144c.028-.2.057-.4.085-.6q.031-.214.061-.427l.248-1.727c.021-.15.043-.3.064-.449l.065-.447c.007-.053.015-.106.02-.156C264.589,157.62,264.408,157.2,264.387,156.836Zm-2.065,6.466a1.422,1.422,0,0,1-.156-.676h-.009a.347.347,0,0,0-.01-.219c-.024-.057-.066-.105-.092-.162a.592.592,0,0,1-.042-.218,5.943,5.943,0,0,1,.111-1.412c.01-.054.021-.11.031-.164a.407.407,0,0,0,.089-.069.631.631,0,0,0,.1-.156c.088-.177.168-.356.242-.539.024-.059.059-.128.119-.142a3.416,3.416,0,0,1-.151,1.331.84.84,0,0,0-.078.21c-.017.116.031.233.014.349-.009.06-.034.115-.044.174a.17.17,0,0,0,.045.165.136.136,0,0,0,.033.017c0,.031-.009.063-.012.093-.006.064-.009.124-.013.161a5.02,5.02,0,0,0-.021.573c0,.206.008.413,0,.623a.422.422,0,0,1-.03.177.308.308,0,0,1-.059.078A2.029,2.029,0,0,0,262.323,163.3Z" transform="translate(-192.755 -117.603)" fill="url(#linear-gradient)"/>
  <ellipse id="Ellipse_22" data-name="Ellipse 22" cx="0.439" cy="1.243" rx="0.439" ry="1.243" transform="matrix(0.98, -0.201, 0.201, 0.98, 62.495, 34.321)" fill="#fbbebe"/>
  <path id="Path_148" data-name="Path 148" d="M282.386,269.043a.471.471,0,0,0,.173.539.769.769,0,0,0,.223.078,1.178,1.178,0,0,0,.325.044c.135-.006.264-.059.4-.078a.062.062,0,0,1,.046.006.066.066,0,0,1,.017.054,2.056,2.056,0,0,0,.017.229.117.117,0,0,0,.04.088.121.121,0,0,0,.062.011h.422a4.114,4.114,0,0,0-.121-1.1.246.246,0,0,0-.031-.078.258.258,0,0,0-.135-.078.753.753,0,0,0-.326-.057.956.956,0,0,0-.366.179.557.557,0,0,1-.415.1C282.576,268.945,282.458,268.827,282.386,269.043Z" transform="translate(-215.336 -207.359)" fill="#3f3d56"/>
  <path id="Path_149" data-name="Path 149" d="M255.236,268.2a1.167,1.167,0,0,1-.426.29l-.072.034a.05.05,0,0,0-.024.02.042.042,0,0,0,.008.035.5.5,0,0,0,.571.208.3.3,0,0,0,.125-.065.411.411,0,0,0,.1-.251.513.513,0,0,0-.012-.287C255.4,267.94,255.355,268.051,255.236,268.2Z" transform="translate(-194.379 -206.859)" fill="#fbbebe"/>
  <path id="Path_150" data-name="Path 150" d="M255.36,269.3a.189.189,0,0,1-.013.086c-.037.072-.139.068-.218.052a5.239,5.239,0,0,0-.1-.786c-.151-.007-.26.136-.341.265l-.209.331a.431.431,0,0,1-.125.145.369.369,0,0,1-.135.043,2.552,2.552,0,0,1-1.185-.184.629.629,0,0,1-.161-.068.329.329,0,0,1-.078-.45c.161-.218.523-.156.724-.336a1.812,1.812,0,0,1-.1.371c.269-.04.449-.286.665-.451a.41.41,0,0,1,.19-.09.418.418,0,0,1,.156.016,1.826,1.826,0,0,1,.685.337.738.738,0,0,1,.245.255A1.89,1.89,0,0,1,255.36,269.3Z" transform="translate(-192.887 -206.999)" fill="#3f3d56"/>
  <circle id="Ellipse_23" data-name="Ellipse 23" cx="1.608" cy="1.608" r="1.608" transform="translate(66.22 33.406)" fill="#fbbebe"/>
  <path id="Path_151" data-name="Path 151" d="M293.541,197.561a3.815,3.815,0,0,1-.13.91,9.4,9.4,0,0,1-.294,1.09,2.4,2.4,0,0,0-.208.794.528.528,0,0,1-.051.332.484.484,0,0,1-.227.13.284.284,0,0,0-.191.17,1.2,1.2,0,0,1-.162-.356q-.209-.641-.389-1.29a.167.167,0,0,1,.011-.156.193.193,0,0,1,.068-.038.7.7,0,0,0,.216-.139.315.315,0,0,0,.072-.093.419.419,0,0,0,.03-.176c0-.206,0-.412-.005-.618a5.152,5.152,0,0,1,.022-.57c0-.037.007-.1.013-.161.012-.122.035-.264.1-.311.1-.066.395.023.507.038.193.026.389.058.577.094A1.544,1.544,0,0,1,293.541,197.561Z" transform="translate(-222.545 -153.053)" fill="#3f3d56"/>
  <path id="Path_152" data-name="Path 152" d="M266.423,162.317c-.062.125-.212.184-.327.263l-.395.271a.263.263,0,0,1-.2.067.257.257,0,0,1-.146-.136.03.03,0,0,0,0-.006l-.082-.137-.389-.652a.371.371,0,0,1-.072-.2c0-.033.012-.065.015-.1a.471.471,0,0,0-.078-.265c-.031-.058-.093-.107-.092-.172a.623.623,0,0,1,.044-.251.509.509,0,0,1,.17-.182c.037-.026.074-.051.113-.078a.222.222,0,0,1,.068-.031c.065-.013.128.04.194.043.281.188.389.545.61.8.125.146.137.258.278.389.023.02.044.042.065.065a.453.453,0,0,1,.07.1C266.3,162.174,266.455,162.253,266.423,162.317Z" transform="translate(-201.92 -125.502)" fill="#3f3d56"/>
  <path id="Path_153" data-name="Path 153" d="M281.07,162.864a1.449,1.449,0,0,1,.173.784.489.489,0,0,1-.068.206.667.667,0,0,1-.552.213.325.325,0,0,0-.24.078.218.218,0,0,0,.015.266.6.6,0,0,0,.238.156,2.109,2.109,0,0,0,1.025.227c.163-.016.322-.063.485-.087a5.1,5.1,0,0,1,.534-.03c.212-.008.423-.029.634-.05l.559-.055a.125.125,0,0,0,.083-.03c.041-.048-.012-.119-.063-.156-.3-.219-.674-.37-.843-.7a4.116,4.116,0,0,1-.16-.509,4.271,4.271,0,0,1-.185-.491,3.257,3.257,0,0,1-.026-.453.608.608,0,0,0-.156-.414.649.649,0,0,0-.423-.136,1.371,1.371,0,0,0-1.032.335c-.071.071-.132.156-.2.219s-.173.083-.125.167.143.136.195.21A1.79,1.79,0,0,1,281.07,162.864Z" transform="translate(-213.807 -126.242)" fill="#fbbebe"/>
  <path id="Path_154" data-name="Path 154" d="M278.963,169.659a8.843,8.843,0,0,1-.476,1.754,6.6,6.6,0,0,0-.28.786c-.06.241-.048.5-.1.742-.068.3-.137.6-.192.907a5.944,5.944,0,0,0-.111,1.409.589.589,0,0,0,.042.217c.026.056.067.1.091.162a.389.389,0,0,1-.022.311.9.9,0,0,1-.16.243,9.953,9.953,0,0,1-2.257.191,9.076,9.076,0,0,1-2.087.066,1.654,1.654,0,0,1,.163-.941,6.912,6.912,0,0,0,.623-2.724,2.828,2.828,0,0,0-.037-.321,4.26,4.26,0,0,1,.207-1.967,3.376,3.376,0,0,0,.089-1.228,2.243,2.243,0,0,1-.005-.4.707.707,0,0,1,.146-.376c0-.005.007-.011.011-.016a.107.107,0,0,1,.058,0h0a.05.05,0,0,0,.039,0l.009-.005a.019.019,0,0,1,.023,0c.018.011.028.048.067.055a1.55,1.55,0,0,0,.174.016.932.932,0,0,1,.207.03h.009a.608.608,0,0,0,.3-.026.8.8,0,0,0,.185-.072c.017-.019.125-.036.146-.049.071-.043.055-.244.07-.326a.9.9,0,0,1,.058-.241.411.411,0,0,1,.333-.194,1.774,1.774,0,0,1,.4.036c.29.041.588.034.872.1a.65.65,0,0,0,.431.019c.036.009.041.04.041.078a.5.5,0,0,1-.022.107c-.05.215.119.413.275.568a.881.881,0,0,0,.23.183c.078.036.156.051.233.09a.425.425,0,0,1,.156.142.594.594,0,0,1,.089.227A1.353,1.353,0,0,1,278.963,169.659Z" transform="translate(-208.53 -130.772)" fill="#3f3d56"/>
  <path id="Path_155" data-name="Path 155" d="M281.257,172.173a8.843,8.843,0,0,1-.476,1.754,6.6,6.6,0,0,0-.28.786c-.06.241-.048.5-.1.742-.069.3-.137.6-.192.907-.016.009-.033.018-.051.026a1.193,1.193,0,0,1-.305.1,1.867,1.867,0,0,1-.57-.019l-1.111-.149a2.238,2.238,0,0,1-1.245-.433,2.659,2.659,0,0,1-.434-.593,2.828,2.828,0,0,0-.037-.321,4.26,4.26,0,0,1,.207-1.967,3.376,3.376,0,0,0,.089-1.228,2.243,2.243,0,0,1-.005-.4.707.707,0,0,1,.146-.376.555.555,0,0,1,.069-.016h0a.346.346,0,0,1,.047-.006h.023a.339.339,0,0,1,.078.009,1.407,1.407,0,0,1,.156.06h.009a.6.6,0,0,0,.207.03c.1,0,.209-.016.311-.023a.574.574,0,0,1,.369.066,2.214,2.214,0,0,1,.206.188.882.882,0,0,0,.259.141,2.754,2.754,0,0,0,2.072-.044.406.406,0,0,1,.208-.053.389.389,0,0,1,.149.064c.047.027.093.054.14.078a.594.594,0,0,1,.089.227A1.354,1.354,0,0,1,281.257,172.173Z" transform="translate(-210.824 -133.287)" opacity="0.1"/>
  <path id="Path_156" data-name="Path 156" d="M279.829,171.19a4.154,4.154,0,0,1-.887-.389.4.4,0,0,0-.149-.064.418.418,0,0,0-.209.053,2.753,2.753,0,0,1-2.071.044.9.9,0,0,1-.259-.141,2.328,2.328,0,0,0-.205-.188c-.256-.166-.61.029-.9-.078a1.585,1.585,0,0,0-.156-.06c-.227-.057-.457.169-.679.1a3.784,3.784,0,0,0-.183.694,7.561,7.561,0,0,0-.051.819c0,.164-.008.328,0,.493a.162.162,0,0,1,.123.255,6.376,6.376,0,0,1-.574,1.215,2.641,2.641,0,0,1,.481.367c.272.288.406.692.7.958a2.249,2.249,0,0,0,1.245.432l1.111.149a1.9,1.9,0,0,0,.57.019,1.2,1.2,0,0,0,.3-.1.544.544,0,0,0,.17-.112.623.623,0,0,0,.1-.156c.088-.176.168-.356.242-.538.026-.065.065-.14.135-.146.412-.372.8-.753,1.214-1.125a2.69,2.69,0,0,0,.443-.467c.2-.3.019-.732,0-1.1a1.386,1.386,0,0,0-.035-.278A.892.892,0,0,0,279.829,171.19Z" transform="translate(-208.719 -132.819)" fill="#6c63ff"/>
  <path id="Path_157" data-name="Path 157" d="M268.608,166.344c-.062.125-.212.184-.327.263l-.395.271a.263.263,0,0,1-.2.067.257.257,0,0,1-.146-.136v-.056a.522.522,0,0,1,.025-.186.58.58,0,0,1,.174-.224,1.427,1.427,0,0,1,.511-.311.175.175,0,0,1,.093-.009.122.122,0,0,1,.034.015.45.45,0,0,1,.07.1C268.485,166.2,268.64,166.28,268.608,166.344Z" transform="translate(-204.105 -129.53)" opacity="0.1"/>
  <path id="Path_158" data-name="Path 158" d="M269.84,167.322a.567.567,0,0,1-.337-.193l-.295-.274a.275.275,0,0,1-.051-.058.4.4,0,0,1-.036-.1,1.1,1.1,0,0,0-.286-.411.187.187,0,0,0-.085-.061.171.171,0,0,0-.094.009,1.423,1.423,0,0,0-.511.311.581.581,0,0,0-.174.224.518.518,0,0,0-.025.186,1.429,1.429,0,0,0,.135.595c.013.029.028.058.044.086a2.7,2.7,0,0,0,.366.476l.185.207c.182.2.364.408.562.6a.742.742,0,0,0,.252.176.282.282,0,0,0,.29-.047.419.419,0,0,0,.082-.148,2.911,2.911,0,0,0,.241-.971,3.66,3.66,0,0,0-.017-.4C270.072,167.386,269.972,167.331,269.84,167.322Z" transform="translate(-204.408 -129.687)" fill="#6c63ff"/>
  <path id="Path_159" data-name="Path 159" d="M266.005,204.538a17.982,17.982,0,0,1-.167,2.34c-.016.125-.033.251-.041.376-.026.363.016.728-.018,1.09-.018.2-.058.389-.093.58a10.311,10.311,0,0,0-.132,2.58c.107,1.434-.222,2.87-.072,4.3a3.478,3.478,0,0,1-.046.832,3.528,3.528,0,0,1-.121.5q-.171.584-.342,1.167a.4.4,0,0,1-.078.162.369.369,0,0,1-.292.086,3.367,3.367,0,0,1-1.28-.4.446.446,0,0,1-.128-.078c-.085-.088-.078-.226-.115-.342a3.258,3.258,0,0,0-.2-.344,1.124,1.124,0,0,1-.085-.354q-.078-.6-.106-1.2a6.406,6.406,0,0,1,.467-1.634c.233-1.08.036-2.238.451-3.263.131-.324-.059-.716-.078-1.065a3.373,3.373,0,0,0-.087-.668,4.141,4.141,0,0,1-.254-.872,3.2,3.2,0,0,1,.1-.65,2.921,2.921,0,0,0-.013-.96c-.041-.262-.1-.523-.167-.778l-.014.029a8.8,8.8,0,0,0-.488,1.148c-.062.191-.117.385-.195.571-.064.156-.142.3-.219.444a12.767,12.767,0,0,0-.72,1.6c-.1.269-.181.545-.265.815l-.577,1.868c-.156.491-.326.966-.479,1.456-.216.7-.431,1.395-.682,2.08a4.492,4.492,0,0,0-.428,2.01,1.479,1.479,0,0,1-.687.139,4.023,4.023,0,0,1-1.167-.283.908.908,0,0,1-.4-.24.954.954,0,0,1-.078-.788,1.906,1.906,0,0,1,.093-.355c.059-.143.156-.27.216-.412a3.451,3.451,0,0,0,.178-.874,1.079,1.079,0,0,1,.408-.767,11.069,11.069,0,0,1,.374-1.536c.089-.384.118-.778.188-1.167a2.564,2.564,0,0,1,.418-1.094,1.733,1.733,0,0,1,.212-.934,1.024,1.024,0,0,0,.093-.2,1.146,1.146,0,0,0,.025-.205,1.215,1.215,0,0,1,.328-.721,1.464,1.464,0,0,1,.128-.856,2.975,2.975,0,0,0,.163-1.1.959.959,0,0,1,.015-.311c.022-.078.065-.144.09-.219a1.248,1.248,0,0,0,.035-.279,3.231,3.231,0,0,1,.389-1.194c.112-.219.017-.518.04-.762a2.944,2.944,0,0,1,.286-1.181c.037-.067.078-.131.111-.2a.867.867,0,0,0,.065-.311,1.146,1.146,0,0,0-.032-.492,2.522,2.522,0,0,1,1.526-.467,9.515,9.515,0,0,0,1.62-.09c.156-.035.311-.083.476-.107a3.076,3.076,0,0,1,1.119.114,1.333,1.333,0,0,0,.156.675A7.244,7.244,0,0,1,266.005,204.538Z" transform="translate(-195.857 -156.007)" fill="#33313f"/>
  <path id="Path_160" data-name="Path 160" d="M284.322,216.506l-.894,2.011c-.041-.262-.1-.523-.167-.778l-.014.029v-.042l.487-1.072Z" transform="translate(-216.006 -167.797)" opacity="0.1"/>
  <path id="Path_161" data-name="Path 161" d="M294.9,197.561a.336.336,0,0,1-.177.066.863.863,0,0,1-.291-.04l-.7-.175a.343.343,0,0,1-.064-.023c.012-.122.035-.264.1-.311.1-.066.395.023.507.038.193.026.389.058.577.094A1.543,1.543,0,0,1,294.9,197.561Z" transform="translate(-223.906 -153.053)" opacity="0.1"/>
  <path id="Path_162" data-name="Path 162" d="M295.266,179.237c.015.065.036.128.048.194a1.478,1.478,0,0,1-.016.482l-.064.445-.064.448-.247,1.722-.061.426-.086.6a.429.429,0,0,1-.037.143.3.3,0,0,1-.244.144.883.883,0,0,1-.291-.04l-.7-.176a.22.22,0,0,1-.086-.035.169.169,0,0,1-.045-.164c.01-.059.036-.114.044-.174.017-.115-.031-.233-.014-.348a.866.866,0,0,1,.078-.209,6.043,6.043,0,0,0,.177-1.679,2.545,2.545,0,0,1,.54-1.2,3.45,3.45,0,0,1,.6-.585,1.2,1.2,0,0,1,.335-.233C295.272,178.962,295.243,179.139,295.266,179.237Z" transform="translate(-223.678 -139.36)" fill="#6c63ff"/>
  <path id="Path_163" data-name="Path 163" d="M277.033,151.078c-.051.163.029.343-.008.51-.04.184-.212.311-.262.5-.078.281.16.537.335.771a3.9,3.9,0,0,1,.34,3.125,16.136,16.136,0,0,1-.736,2.491,1.909,1.909,0,0,1-.4.7,2.049,2.049,0,0,1,1.1-.107c.455.126.847.567,1.308.467.277-.061.472-.307.721-.444a2.469,2.469,0,0,1,1.55-.012.609.609,0,0,0,.339-.017.563.563,0,0,0,.206-.189,1.919,1.919,0,0,0,.4-1.035,1.328,1.328,0,0,0-.382-1.022,2.187,2.187,0,0,1-.328-.311.967.967,0,0,1-.128-.472,14.2,14.2,0,0,0-.068-2.558,6.317,6.317,0,0,1-.239-.879,3.9,3.9,0,0,0-.09-1.122,1.1,1.1,0,0,0-.656-.567,3.6,3.6,0,0,0-.875-.156C278.735,150.7,277.212,150.522,277.033,151.078Z" transform="translate(-210.747 -117.905)" fill="#33313f"/>
  <g id="Group_196" data-name="Group 196" transform="translate(65.561 32.994)" opacity="0.1">
    <path id="Path_164" data-name="Path 164" d="M278.692,159.6a16.107,16.107,0,0,1-.732,2.48c.054-.107.1-.219.142-.33a16.053,16.053,0,0,0,.735-2.491,3.892,3.892,0,0,0-.339-3.125,1.221,1.221,0,0,1-.349-.674.829.829,0,0,0-.132.244c-.078.281.16.537.335.771A3.893,3.893,0,0,1,278.692,159.6Z" transform="translate(-277.56 -154.523)"/>
    <path id="Path_165" data-name="Path 165" d="M279.25,152.188a.758.758,0,0,0,.137-.262,1.336,1.336,0,0,0-.009-.347.374.374,0,0,0-.129.178A1.54,1.54,0,0,0,279.25,152.188Z" transform="translate(-278.522 -151.579)"/>
    <path id="Path_166" data-name="Path 166" d="M281.674,182.208a.56.56,0,0,1-.205.188.6.6,0,0,1-.339.017,2.49,2.49,0,0,0-1.55.013c-.25.135-.444.381-.721.444-.46.1-.852-.339-1.307-.467a1.825,1.825,0,0,0-.986.078,1.36,1.36,0,0,1-.258.372,2.049,2.049,0,0,1,1.1-.107c.455.126.847.567,1.308.467.277-.061.472-.307.721-.444a2.469,2.469,0,0,1,1.55-.012.609.609,0,0,0,.339-.017.562.562,0,0,0,.205-.189,2.092,2.092,0,0,0,.322-.616A2.263,2.263,0,0,1,281.674,182.208Z" transform="translate(-276.307 -174.587)"/>
  </g>
</svg>
