<svg xmlns="http://www.w3.org/2000/svg" xmlns:xlink="http://www.w3.org/1999/xlink" width="124.81" height="63" viewBox="0 0 124.81 63">
  <defs>
    <linearGradient id="linear-gradient" x1="0.5" y1="1" x2="0.5" gradientUnits="objectBoundingBox">
      <stop offset="0" stop-color="gray" stop-opacity="0.251"/>
      <stop offset="0.54" stop-color="gray" stop-opacity="0.122"/>
      <stop offset="1" stop-color="gray" stop-opacity="0.102"/>
    </linearGradient>
    <linearGradient id="linear-gradient-2" x1="0.5" y1="1" x2="0.5" y2="0" xlink:href="#linear-gradient"/>
    <linearGradient id="linear-gradient-3" x1="0.5" y1="1" x2="0.5" y2="0" xlink:href="#linear-gradient"/>
    <linearGradient id="linear-gradient-5" x1="0.5" y1="1" x2="0.5" y2="0" xlink:href="#linear-gradient"/>
    <linearGradient id="linear-gradient-6" x1="0.501" y1="1" x2="0.501" y2="0" xlink:href="#linear-gradient"/>
    <linearGradient id="linear-gradient-7" x1="0.5" y1="1" x2="0.5" y2="0" xlink:href="#linear-gradient"/>
    <linearGradient id="linear-gradient-12" x1="0.5" y1="1" x2="0.5" y2="0" xlink:href="#linear-gradient"/>
    <linearGradient id="linear-gradient-13" x1="0.5" y1="1" x2="0.5" y2="0" xlink:href="#linear-gradient"/>
    <linearGradient id="linear-gradient-17" x1="0.5" y1="1" x2="0.5" y2="0" xlink:href="#linear-gradient"/>
    <linearGradient id="linear-gradient-18" x1="0.501" y1="1" x2="0.501" y2="0" xlink:href="#linear-gradient"/>
    <linearGradient id="linear-gradient-19" x1="0.5" y1="1" x2="0.5" gradientUnits="objectBoundingBox">
      <stop offset="0" stop-color="#b3b3b3" stop-opacity="0.251"/>
      <stop offset="0.54" stop-color="#b3b3b3" stop-opacity="0.102"/>
      <stop offset="1" stop-color="#b3b3b3" stop-opacity="0.051"/>
    </linearGradient>
    <linearGradient id="linear-gradient-20" x1="0.5" y1="1.001" x2="0.5" gradientUnits="objectBoundingBox">
      <stop offset="0" stop-opacity="0.122"/>
      <stop offset="0.55" stop-opacity="0.09"/>
      <stop offset="1" stop-opacity="0.02"/>
    </linearGradient>
    <linearGradient id="linear-gradient-21" x1="0.5" y1="0.999" x2="0.5" y2="0" xlink:href="#linear-gradient-20"/>
  </defs>
  <g id="undraw_house_searching_n8mp" transform="translate(0.01 0.013)">
    <circle id="Ellipse_40" data-name="Ellipse 40" cx="23.557" cy="23.557" r="23.557" transform="translate(4.353 6.789)" opacity="0.3" stroke="#ff9800" stroke-miterlimit="10" stroke-width="4" stroke-dasharray="12" fill="none"/>
    <circle id="Ellipse_41" data-name="Ellipse 41" cx="23.557" cy="23.557" r="23.557" transform="translate(66.482 2.13)" opacity="0.3" stroke="#ff9800" stroke-miterlimit="10" stroke-width="4" stroke-dasharray="12" fill="none"/>
    <g id="_Group_" data-name="&lt;Group&gt;" transform="translate(96.487 20.27)">
      <path id="Path_248" data-name="Path 248" d="M894.478,420.669a5.825,5.825,0,0,1-1.582-3.985,5.917,5.917,0,0,1,2.9-5.057,3.434,3.434,0,0,1-.606-1.942,3.6,3.6,0,0,1,3.66-3.536,3.644,3.644,0,0,1,3.512,2.546,5.492,5.492,0,0,1,4.67-2.546,5.365,5.365,0,0,1,5.454,5.269,5.1,5.1,0,0,1-.334,1.819c.11-.008.221-.017.334-.017a4.305,4.305,0,0,1,4.377,4.23,4.125,4.125,0,0,1-.022.427,5.253,5.253,0,0,1,3.288,4.825,5.347,5.347,0,0,1-5.436,5.252,5.647,5.647,0,0,1-.941-.08c.016.175.026.352.026.531a6,6,0,0,1-6.1,5.894,6.213,6.213,0,0,1-3.474-1.05,4.631,4.631,0,0,1-2.95,1.05,4.481,4.481,0,0,1-4.557-4.4c0-.1.009-.208.017-.312H896.7a4.8,4.8,0,0,1-4.88-4.715A4.7,4.7,0,0,1,894.478,420.669Z" transform="translate(-891.82 -406.149)" fill="url(#linear-gradient)"/>
    </g>
    <path id="_Path_" data-name="&lt;Path&gt;" d="M899.055,424.671a5.578,5.578,0,0,1-1.513-3.814,5.663,5.663,0,0,1,2.778-4.841,3.286,3.286,0,0,1-.58-1.863,3.446,3.446,0,0,1,3.5-3.385,3.5,3.5,0,0,1,3.365,2.436,5.258,5.258,0,0,1,4.462-2.435,5.135,5.135,0,0,1,5.22,5.048,4.882,4.882,0,0,1-.32,1.741c.106-.008.212-.016.32-.016a4.12,4.12,0,0,1,4.19,4.049,3.963,3.963,0,0,1-.022.409,5.034,5.034,0,0,1,3.147,4.618,5.118,5.118,0,0,1-5.2,5.027,5.409,5.409,0,0,1-.906-.076c.016.167.025.337.025.507a5.742,5.742,0,0,1-5.839,5.641,5.954,5.954,0,0,1-3.325-1,4.433,4.433,0,0,1-2.813,1.007,4.29,4.29,0,0,1-4.362-4.214c0-.1.008-.2.016-.3h-.016a4.594,4.594,0,0,1-4.671-4.513A4.5,4.5,0,0,1,899.055,424.671Z" transform="translate(-799.416 -389.901)" fill="#009688"/>
    <line id="_Path_2" data-name="&lt;Path&gt;" y2="31.354" transform="translate(109.536 28.87)" fill="#795548"/>
    <rect id="Rectangle_80" data-name="Rectangle 80" width="1.707" height="31.353" transform="translate(108.653 28.87)" fill="url(#linear-gradient-2)"/>
    <rect id="Rectangle_81" data-name="Rectangle 81" width="0.945" height="31.353" transform="translate(109.063 28.87)" fill="#795548"/>
    <line id="_Path_3" data-name="&lt;Path&gt;" x1="5.599" y1="5.711" transform="translate(104.032 32.55)" fill="#795548"/>
    <rect id="Rectangle_82" data-name="Rectangle 82" width="0.945" height="7.998" transform="matrix(0.714, -0.7, 0.7, 0.714, 103.696, 32.88)" fill="#795548"/>
    <line id="_Path_4" data-name="&lt;Path&gt;" y1="4.072" x2="5.804" transform="translate(109.631 39.096)" fill="#795548"/>
    <rect id="Rectangle_83" data-name="Rectangle 83" width="7.09" height="0.945" transform="translate(109.359 42.779) rotate(-35.06)" fill="#795548"/>
    <g id="_Group_2" data-name="&lt;Group&gt;" transform="translate(85.648 20.495)">
      <path id="Path_249" data-name="Path 249" d="M832.849,422.735a6.179,6.179,0,0,0-1.275-9.242,3.654,3.654,0,0,0,.585-1.989,3.524,3.524,0,0,0-6.925-1.012,5.241,5.241,0,0,0-4.508-2.6,5.327,5.327,0,0,0-5.267,5.386,5.484,5.484,0,0,0,.322,1.859c-.106-.008-.214-.017-.322-.017a4.283,4.283,0,0,0-4.227,4.323c0,.148.008.292.022.436a5.373,5.373,0,0,0-3.175,4.931,5.31,5.31,0,0,0,5.249,5.369,5.161,5.161,0,0,0,.906-.082c-.016.179-.025.36-.025.542a5.958,5.958,0,0,0,5.891,6.024,5.771,5.771,0,0,0,3.354-1.073,4.323,4.323,0,0,0,2.848,1.073,4.451,4.451,0,0,0,4.4-4.5c0-.107-.009-.214-.016-.32h.016a4.766,4.766,0,0,0,4.711-4.819A4.83,4.83,0,0,0,832.849,422.735Z" transform="translate(-808.08 -407.89)" fill="url(#linear-gradient-3)"/>
    </g>
    <path id="_Path_5" data-name="&lt;Path&gt;" d="M837.862,428.644a5.8,5.8,0,0,0-1.2-8.672,3.429,3.429,0,0,0,.549-1.868,3.306,3.306,0,0,0-6.5-.951,4.918,4.918,0,0,0-4.232-2.442,5,5,0,0,0-4.943,5.056,5.149,5.149,0,0,0,.3,1.745c-.1-.008-.2-.016-.3-.016a4.01,4.01,0,0,0-3.967,4.058,3.9,3.9,0,0,0,.021.409,5.048,5.048,0,0,0-2.977,4.63,4.981,4.981,0,0,0,4.928,5.039,4.846,4.846,0,0,0,.853-.076c-.014.168-.023.338-.023.509a5.591,5.591,0,0,0,5.528,5.654,5.417,5.417,0,0,0,3.148-1.007,4.058,4.058,0,0,0,2.673,1.007,4.178,4.178,0,0,0,4.13-4.225c0-.1-.008-.2-.014-.3h.014a4.474,4.474,0,0,0,4.423-4.524A4.53,4.53,0,0,0,837.862,428.644Z" transform="translate(-728.125 -393.332)" fill="#00897b"/>
    <rect id="Rectangle_84" data-name="Rectangle 84" width="1.284" height="31.942" transform="translate(99.732 28.858)" fill="url(#linear-gradient-3)"/>
    <rect id="Rectangle_85" data-name="Rectangle 85" width="0.646" height="31.493" transform="translate(100.097 29.307)" fill="#795548"/>
    <rect id="Rectangle_86" data-name="Rectangle 86" width="7.802" height="0.646" transform="translate(100.036 38.582) rotate(-47.2)" fill="#795548"/>
    <rect id="Rectangle_87" data-name="Rectangle 87" width="0.646" height="6.846" transform="matrix(0.596, -0.803, 0.803, 0.596, 94.588, 39.908)" fill="#795548"/>
    <g id="_Group_3" data-name="&lt;Group&gt;" transform="translate(83.866 34.78)">
      <path id="Path_250" data-name="Path 250" d="M796.122,528.15a3.972,3.972,0,0,1-1.077-2.718,4.032,4.032,0,0,1,1.978-3.446,2.34,2.34,0,0,1-.413-1.327,2.454,2.454,0,0,1,2.494-2.41,2.484,2.484,0,0,1,2.393,1.734,3.743,3.743,0,0,1,3.183-1.734,3.656,3.656,0,0,1,3.717,3.59,3.476,3.476,0,0,1-.228,1.24c.075,0,.15-.012.228-.012a2.931,2.931,0,0,1,2.977,2.883,2.829,2.829,0,0,1-.016.291,3.579,3.579,0,0,1,2.241,3.289,3.643,3.643,0,0,1-3.7,3.579,3.852,3.852,0,0,1-.647-.054c.012.119.018.239.018.361a4.085,4.085,0,0,1-4.157,4.012,4.237,4.237,0,0,1-2.357-.7,3.156,3.156,0,0,1-2.01.709,3.055,3.055,0,0,1-3.106-3,1.281,1.281,0,0,1,.012-.212h-.012a3.27,3.27,0,0,1-3.325-3.213,3.2,3.2,0,0,1,1.812-2.861Z" transform="translate(-794.31 -518.249)" fill="url(#linear-gradient-5)"/>
    </g>
    <path id="_Path_6" data-name="&lt;Path&gt;" d="M799.2,530.922a3.8,3.8,0,0,1-1.035-2.6,3.858,3.858,0,0,1,1.894-3.3,2.239,2.239,0,0,1-.395-1.27,2.348,2.348,0,0,1,2.387-2.307,2.376,2.376,0,0,1,2.291,1.661,3.583,3.583,0,0,1,3.046-1.661,3.5,3.5,0,0,1,3.558,3.438,3.325,3.325,0,0,1-.217,1.187c.072,0,.144-.01.217-.01a2.808,2.808,0,0,1,2.855,2.758,2.7,2.7,0,0,1-.014.278,3.426,3.426,0,0,1,2.145,3.148,3.488,3.488,0,0,1-3.546,3.426,3.69,3.69,0,0,1-.614-.052c.01.114.017.229.017.346a3.913,3.913,0,0,1-3.979,3.844,4.056,4.056,0,0,1-2.265-.685,3.021,3.021,0,0,1-1.923.685,2.927,2.927,0,0,1-2.977-2.872,1.334,1.334,0,0,1,.01-.2h-.01a3.131,3.131,0,0,1-3.183-3.075A3.065,3.065,0,0,1,799.2,530.922Z" transform="translate(-713.186 -486.255)" fill="#009688"/>
    <line id="_Path_7" data-name="&lt;Path&gt;" y2="21.366" transform="translate(92.758 40.646)" fill="#795548"/>
    <rect id="Rectangle_88" data-name="Rectangle 88" width="1.164" height="21.366" transform="translate(92.156 40.646)" fill="url(#linear-gradient-6)"/>
    <rect id="Rectangle_89" data-name="Rectangle 89" width="0.643" height="21.366" transform="translate(92.436 40.646)" fill="#795548"/>
    <line id="_Path_8" data-name="&lt;Path&gt;" x1="3.814" y1="3.892" transform="translate(89.009 43.153)" fill="#795548"/>
    <rect id="Rectangle_90" data-name="Rectangle 90" width="0.643" height="5.449" transform="matrix(0.714, -0.7, 0.7, 0.714, 88.778, 43.378)" fill="#795548"/>
    <line id="_Path_9" data-name="&lt;Path&gt;" y1="2.775" x2="3.956" transform="translate(92.823 47.614)" fill="#795548"/>
    <rect id="Rectangle_91" data-name="Rectangle 91" width="4.832" height="0.643" transform="translate(92.639 50.123) rotate(-35.06)" fill="#795548"/>
    <g id="_Group_4" data-name="&lt;Group&gt;" transform="translate(79.997 35.35)">
      <path id="Path_251" data-name="Path 251" d="M781.047,532.624a4.142,4.142,0,0,0-.856-6.2,2.459,2.459,0,0,0,.388-1.336,2.366,2.366,0,0,0-4.648-.68,3.518,3.518,0,0,0-3.024-1.746,3.575,3.575,0,0,0-3.535,3.615,3.682,3.682,0,0,0,.216,1.248c-.071,0-.144-.012-.216-.012a2.87,2.87,0,0,0-2.837,2.9,2.015,2.015,0,0,0,.014.293,3.606,3.606,0,0,0-2.13,3.311,3.565,3.565,0,0,0,3.523,3.6,3.467,3.467,0,0,0,.61-.054c-.01.12-.017.241-.017.364a4,4,0,0,0,3.953,4.044,3.874,3.874,0,0,0,2.251-.72,2.9,2.9,0,0,0,1.912.72,2.987,2.987,0,0,0,2.954-3.021,1.49,1.49,0,0,0-.01-.215h.01a3.2,3.2,0,0,0,3.163-3.236A3.242,3.242,0,0,0,781.047,532.624Z" transform="translate(-764.419 -522.66)" fill="url(#linear-gradient-7)"/>
    </g>
    <path id="_Path_10" data-name="&lt;Path&gt;" d="M784.385,536.584a3.893,3.893,0,0,0-.8-5.825,2.3,2.3,0,0,0,.369-1.253,2.221,2.221,0,0,0-4.363-.638,3.3,3.3,0,0,0-2.841-1.639,3.356,3.356,0,0,0-3.317,3.394,3.452,3.452,0,0,0,.2,1.171c-.067,0-.129-.01-.2-.01a2.694,2.694,0,0,0-2.663,2.718,1.93,1.93,0,0,0,.013.274,3.385,3.385,0,0,0-2,3.106,3.345,3.345,0,0,0,3.307,3.382,3.252,3.252,0,0,0,.572-.052q-.016.169-.016.342a3.754,3.754,0,0,0,3.711,3.795,3.636,3.636,0,0,0,2.114-.676,2.718,2.718,0,0,0,1.794.676,2.8,2.8,0,0,0,2.773-2.835,1.333,1.333,0,0,0-.01-.2h.01A3,3,0,0,0,786,539.279,3.043,3.043,0,0,0,784.385,536.584Z" transform="translate(-688.218 -491.288)" fill="#00897b"/>
    <rect id="Rectangle_92" data-name="Rectangle 92" width="0.862" height="21.44" transform="translate(89.453 40.964)" fill="url(#linear-gradient-3)"/>
    <rect id="Rectangle_93" data-name="Rectangle 93" width="0.434" height="21.138" transform="translate(89.697 41.266)" fill="#795548"/>
    <rect id="Rectangle_94" data-name="Rectangle 94" width="5.237" height="0.434" transform="translate(89.655 47.489) rotate(-47.2)" fill="#795548"/>
    <rect id="Rectangle_95" data-name="Rectangle 95" width="0.434" height="4.595" transform="matrix(0.596, -0.803, 0.803, 0.596, 85.998, 48.381)" fill="#795548"/>
    <rect id="Rectangle_96" data-name="Rectangle 96" width="36.501" height="32.488" transform="translate(52.446 30.449)" fill="url(#linear-gradient-3)"/>
    <rect id="Rectangle_97" data-name="Rectangle 97" width="59.54" height="31.453" transform="translate(28.501 30.449)" fill="#fff"/>
    <path id="Path_252" data-name="Path 252" d="M455.074,406.063h-58.5V390.79h56.369a2.136,2.136,0,0,1,2.136,2.136Z" transform="translate(-364.185 -372.508)" fill="url(#linear-gradient-3)"/>
    <path id="Path_253" data-name="Path 253" d="M250.26,146h55.867a2.136,2.136,0,0,1,2.136,2.136v12.14h-58Z" transform="translate(-217.876 -127.114)" fill="#6c63ff"/>
    <path id="Path_254" data-name="Path 254" d="M250.26,146h55.867a2.136,2.136,0,0,1,2.136,2.136v12.14h-58Z" transform="translate(-217.876 -127.114)" fill="#fff" opacity="0.7"/>
    <path id="Path_255" data-name="Path 255" d="M113.452,13.32,93.26,27.54v47h40.384v-47Z" transform="translate(-81.198 -11.607)" fill="url(#linear-gradient-3)"/>
    <path id="Path_256" data-name="Path 256" d="M140.573,27.3,121.416,13.32,102.26,27.3V39.077h38.313Z" transform="translate(-89.033 -11.607)" fill="#6c63ff"/>
    <path id="Path_257" data-name="Path 257" d="M140.573,27.3,121.416,13.32,102.26,27.3V39.077h38.313Z" transform="translate(-89.033 -11.607)" fill="#fff" opacity="0.5"/>
    <rect id="Rectangle_98" data-name="Rectangle 98" width="38.313" height="34.43" transform="translate(13.227 27.472)" fill="#fff"/>
    <path id="Path_258" data-name="Path 258" d="M115.174,24.756,93.558,9.321,71.684,24.756,70.26,19.327,93.558,2.37l23.3,16.957Z" transform="translate(-61.175 -2.074)" fill="url(#linear-gradient-12)"/>
    <path id="Path_259" data-name="Path 259" d="M121.479,27.043,100.061,11.455,78.645,27.043l-.915-4.881L100.061,5.91l22.333,16.252Z" transform="translate(-67.678 -5.156)" fill="#6c63ff"/>
    <path id="Path_260" data-name="Path 260" d="M121.479,27.043,100.061,11.455,78.645,27.043l-.915-4.881L100.061,5.91l22.333,16.252Z" transform="translate(-67.678 -5.156)" opacity="0.2"/>
    <rect id="Rectangle_99" data-name="Rectangle 99" width="21.745" height="26.922" transform="translate(21.511 34.979)" fill="#f2f2f2"/>
    <rect id="Rectangle_100" data-name="Rectangle 100" width="21.745" height="4.66" transform="translate(21.511 34.979)" fill="#6c63ff"/>
    <rect id="Rectangle_101" data-name="Rectangle 101" width="21.745" height="4.66" transform="translate(21.511 57.242)" fill="#6c63ff"/>
    <path id="Path_261" data-name="Path 261" d="M676.594,650.388a.194.194,0,1,0-.194-.194A.194.194,0,0,0,676.594,650.388Z" transform="translate(-607.795 -598.167)" fill="lime"/>
    <rect id="Rectangle_102" data-name="Rectangle 102" width="10.614" height="19.674" transform="translate(63.448 42.227)" fill="#f2f2f2"/>
    <rect id="Rectangle_103" data-name="Rectangle 103" width="9.966" height="7.248" transform="translate(76.78 38.085)" fill="#f2f2f2"/>
    <rect id="Rectangle_104" data-name="Rectangle 104" width="9.966" height="3.236" transform="translate(76.78 38.085)" fill="#6c63ff" opacity="0.2"/>
    <g id="_Group_5" data-name="&lt;Group&gt;" transform="translate(6.332 40.288)">
      <path id="Path_262" data-name="Path 262" d="M196.806,569.058a3.311,3.311,0,0,1-.906-2.264,3.365,3.365,0,0,1,1.649-2.872,1.95,1.95,0,0,1-.344-1.105,2.045,2.045,0,0,1,2.079-2.009,2.071,2.071,0,0,1,2,1.448,3.12,3.12,0,0,1,2.653-1.446,3.048,3.048,0,0,1,3.1,2.994,2.9,2.9,0,0,1-.19,1.036c.063,0,.129-.009.19-.009a2.445,2.445,0,0,1,2.486,2.4,2.355,2.355,0,0,1-.013.242,2.983,2.983,0,0,1,1.868,2.741,3.037,3.037,0,0,1-3.088,2.983,3.208,3.208,0,0,1-.535-.045c.009.1.014.2.014.3A3.409,3.409,0,0,1,204.3,576.8a3.532,3.532,0,0,1-1.974-.6,2.632,2.632,0,0,1-1.676.6,2.55,2.55,0,0,1-2.589-2.5,1.153,1.153,0,0,1,.009-.177h-.009a2.727,2.727,0,0,1-2.772-2.678A2.669,2.669,0,0,1,196.806,569.058Z" transform="translate(-195.29 -560.808)" fill="url(#linear-gradient-13)"/>
    </g>
    <path id="_Path_11" data-name="&lt;Path&gt;" d="M199.414,571.346a3.17,3.17,0,0,1-.859-2.167,3.216,3.216,0,0,1,1.578-2.749,1.866,1.866,0,0,1-.329-1.059,1.957,1.957,0,0,1,1.991-1.923,1.982,1.982,0,0,1,1.909,1.384,2.986,2.986,0,0,1,2.539-1.384,2.917,2.917,0,0,1,2.965,2.866,2.773,2.773,0,0,1-.181.989c.06,0,.12-.009.181-.009a2.345,2.345,0,0,1,2.38,2.3,2.25,2.25,0,0,1-.012.232,2.857,2.857,0,0,1,1.786,2.625,2.907,2.907,0,0,1-2.956,2.857,3.078,3.078,0,0,1-.517-.044c.009.094.014.191.014.289a3.263,3.263,0,0,1-3.317,3.2,3.381,3.381,0,0,1-1.882-.572,2.518,2.518,0,0,1-1.6.571,2.437,2.437,0,0,1-2.477-2.395,1.056,1.056,0,0,1,.009-.17h-.009a2.61,2.61,0,0,1-2.653-2.564A2.555,2.555,0,0,1,199.414,571.346Z" transform="translate(-191.291 -522.818)" fill="#009688"/>
    <line id="_Path_12" data-name="&lt;Path&gt;" y2="17.811" transform="translate(13.746 45.176)" fill="#795548"/>
    <rect id="Rectangle_105" data-name="Rectangle 105" width="0.971" height="17.811" transform="translate(13.244 45.176)" fill="url(#linear-gradient-3)"/>
    <rect id="Rectangle_106" data-name="Rectangle 106" width="0.536" height="17.811" transform="translate(13.477 45.176)" fill="#795548"/>
    <line id="_Path_13" data-name="&lt;Path&gt;" x1="3.182" y1="3.245" transform="translate(10.619 47.265)" fill="#795548"/>
    <rect id="Rectangle_107" data-name="Rectangle 107" width="0.536" height="4.543" transform="matrix(0.714, -0.7, 0.7, 0.714, 10.428, 47.453)" fill="#795548"/>
    <line id="_Path_14" data-name="&lt;Path&gt;" y1="2.313" x2="3.297" transform="translate(13.801 50.985)" fill="#795548"/>
    <rect id="Rectangle_108" data-name="Rectangle 108" width="4.028" height="0.536" transform="translate(13.646 53.077) rotate(-35.06)" fill="#795548"/>
    <g id="_Group_6" data-name="&lt;Group&gt;" transform="translate(-0.01 40.288)">
      <path id="Path_263" data-name="Path 263" d="M147.806,569.058a3.311,3.311,0,0,1-.906-2.264,3.365,3.365,0,0,1,1.649-2.872,1.95,1.95,0,0,1-.344-1.105,2.045,2.045,0,0,1,2.079-2.009,2.071,2.071,0,0,1,2,1.448,3.12,3.12,0,0,1,2.653-1.446,3.048,3.048,0,0,1,3.1,2.994,2.9,2.9,0,0,1-.19,1.036c.063,0,.129-.009.19-.009a2.445,2.445,0,0,1,2.486,2.4,2.35,2.35,0,0,1-.013.242,2.983,2.983,0,0,1,1.868,2.741,3.037,3.037,0,0,1-3.088,2.983,3.208,3.208,0,0,1-.535-.045c.009.1.014.2.014.3A3.409,3.409,0,0,1,155.3,576.8a3.532,3.532,0,0,1-1.974-.6,2.632,2.632,0,0,1-1.676.6,2.55,2.55,0,0,1-2.589-2.5,1.153,1.153,0,0,1,.009-.177h-.009a2.727,2.727,0,0,1-2.772-2.678A2.669,2.669,0,0,1,147.806,569.058Z" transform="translate(-146.29 -560.808)" fill="url(#linear-gradient-13)"/>
    </g>
    <path id="_Path_15" data-name="&lt;Path&gt;" d="M150.414,571.346a3.17,3.17,0,0,1-.859-2.167,3.216,3.216,0,0,1,1.578-2.749,1.866,1.866,0,0,1-.329-1.059,1.957,1.957,0,0,1,1.991-1.923,1.982,1.982,0,0,1,1.909,1.384,2.986,2.986,0,0,1,2.539-1.384,2.917,2.917,0,0,1,2.965,2.866,2.773,2.773,0,0,1-.181.989c.06,0,.12-.009.181-.009a2.345,2.345,0,0,1,2.38,2.3,2.25,2.25,0,0,1-.012.232,2.857,2.857,0,0,1,1.786,2.625,2.907,2.907,0,0,1-2.956,2.857,3.078,3.078,0,0,1-.517-.044c.009.094.014.191.014.289a3.263,3.263,0,0,1-3.317,3.2,3.381,3.381,0,0,1-1.882-.572,2.518,2.518,0,0,1-1.6.571,2.437,2.437,0,0,1-2.477-2.395,1.056,1.056,0,0,1,.009-.17h-.009a2.61,2.61,0,0,1-2.653-2.564A2.555,2.555,0,0,1,150.414,571.346Z" transform="translate(-148.633 -522.818)" fill="#009688"/>
    <line id="_Path_16" data-name="&lt;Path&gt;" y2="17.811" transform="translate(7.404 45.176)" fill="#795548"/>
    <rect id="Rectangle_109" data-name="Rectangle 109" width="0.971" height="17.811" transform="translate(6.902 45.176)" fill="url(#linear-gradient-3)"/>
    <rect id="Rectangle_110" data-name="Rectangle 110" width="0.536" height="17.811" transform="translate(7.135 45.176)" fill="#795548"/>
    <line id="_Path_17" data-name="&lt;Path&gt;" x1="3.182" y1="3.245" transform="translate(4.277 47.265)" fill="#795548"/>
    <rect id="Rectangle_111" data-name="Rectangle 111" width="0.536" height="4.543" transform="matrix(0.714, -0.7, 0.7, 0.714, 4.087, 47.453)" fill="#795548"/>
    <line id="_Path_18" data-name="&lt;Path&gt;" y1="2.313" x2="3.297" transform="translate(7.458 50.985)" fill="#795548"/>
    <rect id="Rectangle_112" data-name="Rectangle 112" width="4.028" height="0.536" transform="translate(7.304 53.078) rotate(-35.06)" fill="#795548"/>
    <g id="_Group_7" data-name="&lt;Group&gt;" transform="translate(2.071 40.366)">
      <path id="Path_264" data-name="Path 264" d="M176.232,569.724a3.457,3.457,0,0,0-.713-5.177,2.045,2.045,0,0,0,.327-1.113,1.973,1.973,0,0,0-3.875-.567,2.933,2.933,0,0,0-2.523-1.456,2.977,2.977,0,0,0-2.947,3.013,3.07,3.07,0,0,0,.18,1.036c-.06,0-.119-.009-.18-.009a2.392,2.392,0,0,0-2.367,2.431,1.706,1.706,0,0,0,.012.245,3.016,3.016,0,0,0,1.161,5.764,2.889,2.889,0,0,0,.509-.045c-.009.1-.014.2-.014.3a3.329,3.329,0,0,0,3.3,3.365,3.235,3.235,0,0,0,1.877-.6,2.419,2.419,0,0,0,1.593.6,2.49,2.49,0,0,0,2.459-2.517,1.172,1.172,0,0,0-.009-.179h.009a2.668,2.668,0,0,0,2.637-2.7,2.7,2.7,0,0,0-1.43-2.4Z" transform="translate(-162.369 -561.41)" fill="url(#linear-gradient-17)"/>
    </g>
    <path id="_Path_19" data-name="&lt;Path&gt;" d="M179.063,573.067a3.245,3.245,0,0,0-.67-4.854,1.919,1.919,0,0,0,.307-1.045,1.851,1.851,0,0,0-3.637-.532,2.753,2.753,0,0,0-2.369-1.367,2.8,2.8,0,0,0-2.76,2.829,2.879,2.879,0,0,0,.17.976c-.056,0-.113-.009-.17-.009a2.246,2.246,0,0,0-2.22,2.27,1.494,1.494,0,0,0,.012.229,2.822,2.822,0,0,0-1.667,2.589,2.789,2.789,0,0,0,2.757,2.819,2.712,2.712,0,0,0,.478-.043c-.008.094-.013.189-.013.285a3.129,3.129,0,0,0,3.093,3.163,3.031,3.031,0,0,0,1.762-.563,2.271,2.271,0,0,0,1.494.562,2.338,2.338,0,0,0,2.312-2.364,1.211,1.211,0,0,0-.008-.168h.008a2.5,2.5,0,0,0,2.475-2.532A2.537,2.537,0,0,0,179.063,573.067Z" transform="translate(-163.51 -524.403)" fill="#00897b"/>
    <rect id="Rectangle_113" data-name="Rectangle 113" width="0.718" height="17.874" transform="translate(9.954 45.053)" fill="url(#linear-gradient-18)"/>
    <rect id="Rectangle_114" data-name="Rectangle 114" width="0.361" height="17.623" transform="translate(10.158 45.304)" fill="#795548"/>
    <rect id="Rectangle_115" data-name="Rectangle 115" width="4.366" height="0.361" transform="translate(10.127 50.493) rotate(-47.2)" fill="#795548"/>
    <rect id="Rectangle_116" data-name="Rectangle 116" width="0.361" height="3.831" transform="matrix(0.596, -0.803, 0.803, 0.596, 7.075, 51.235)" fill="#795548"/>
    <path id="Path_265" data-name="Path 265" d="M630.593,261.347a19.8,19.8,0,1,0-3.24,30.163L641.669,306.4a.963.963,0,0,0,1.363.027l3.566-3.429a.963.963,0,0,0,.027-1.363l-14.315-14.885A19.8,19.8,0,0,0,630.593,261.347Zm-4.459,23.935a14.164,14.164,0,1,1,.388-20.027A14.164,14.164,0,0,1,626.134,285.282Z" transform="translate(-538.272 -254.527)" fill="url(#linear-gradient-19)"/>
    <path id="Path_266" data-name="Path 266" d="M660.246,377.85a1.238,1.238,0,0,0,0,2.475A1.238,1.238,0,0,0,660.246,377.85Z" transform="translate(-592.691 -361.243)" fill="url(#linear-gradient-20)"/>
    <path id="Path_267" data-name="Path 267" d="M684.086,316.569a11.887,11.887,0,0,0-10.263,5.307c-.677,1.059,1.245,1.995,1.918.941a9.8,9.8,0,0,1,8.509-4.306,10.845,10.845,0,0,1,8.848,5.146c.677,1.114,2.448.1,1.776-1.007A13.136,13.136,0,0,0,684.086,316.569Z" transform="translate(-605.428 -307.891)" fill="url(#linear-gradient-21)"/>
    <path id="Path_268" data-name="Path 268" d="M642.593,255.527a19.8,19.8,0,1,0-3.24,30.163l14.315,14.885a.963.963,0,0,0,1.363.027l3.567-3.43a.963.963,0,0,0,.027-1.363l-14.315-14.885A19.8,19.8,0,0,0,642.593,255.527Zm-4.459,23.935a14.164,14.164,0,1,1,.388-20.027A14.164,14.164,0,0,1,638.134,279.462Z" transform="translate(-548.719 -249.46)" fill="#6c63ff"/>
    <path id="Path_269" data-name="Path 269" d="M672.246,372a1.238,1.238,0,0,0,0,2.475A1.238,1.238,0,0,0,672.246,372Z" transform="translate(-603.138 -356.15)" fill="#6c63ff"/>
    <path id="Path_270" data-name="Path 270" d="M696.086,310.749a11.887,11.887,0,0,0-10.263,5.307c-.677,1.059,1.245,1.995,1.918.941a9.8,9.8,0,0,1,8.509-4.306,10.845,10.845,0,0,1,8.848,5.146c.677,1.114,2.448.1,1.776-1.007A13.146,13.146,0,0,0,696.086,310.749Z" transform="translate(-615.875 -302.824)" fill="#6c63ff"/>
  </g>
</svg>
